<svg xmlns="http://www.w3.org/2000/svg" width="377.949" height="329.969" viewBox="0 0 377.949 329.969">
  <g id="img-slide-21" transform="translate(-61.032 -143.152)">
    <g id="Grupo_9935" data-name="Grupo 9935">
      <path id="Caminho_50144" data-name="Caminho 50144" d="M438.981,410.139s-79.758,62.982-188.975,62.982S61.032,410.139,61.032,410.139s5.481-.781,15.457-1.964c12.077-1.436,30.739-3.449,54.227-5.344h.01c1.632-.137,3.293-.274,4.983-.4.108-.009.166-.009.166-.009,65.014-5.032,164-8.823,262.636,2.276h.009q12.81,1.451,25.609,3.234Q431.56,408.972,438.981,410.139Z" fill="#c2c2c2"/>
      <path id="Caminho_50145" data-name="Caminho 50145" d="M424.129,407.931c-27.924,11.256-92.87,33.211-174.123,33.211-80.666,0-145.26-21.642-173.517-32.967,12.077-1.436,30.739-3.449,54.227-5.344h.01c1.632-.137,3.293-.274,4.983-.4.108-.009.166-.009.166-.009,65.014-5.032,164-8.823,262.636,2.276h.009Q411.33,406.148,424.129,407.931Z" fill="#a1a1a1"/>
    </g>
    <g id="Grupo_9975" data-name="Grupo 9975">
      <g id="Grupo_9942" data-name="Grupo 9942">
        <g id="Grupo_9941" data-name="Grupo 9941">
          <g id="Grupo_9937" data-name="Grupo 9937">
            <path id="Caminho_50146" data-name="Caminho 50146" d="M170.553,353.51,149.934,377.6l-11.14-7.358,24.172-41.827Z" fill="#2a2b2b"/>
            <g id="Grupo_9936" data-name="Grupo 9936">
              <path id="Caminho_50147" data-name="Caminho 50147" d="M144.677,396.829c-.624-2.193-1.794-6.632-2.265-8.21l12.623-15L140.9,364.055l-9.349,17.019A119.85,119.85,0,0,0,122.265,391l29.492,20.524a2.1,2.1,0,0,0,.028-2.063C150.508,407.259,145.48,399.655,144.677,396.829Z" fill="#f3803d"/>
              <path id="Caminho_50148" data-name="Caminho 50148" d="M149.747,414.437l-29.492-20.523L122.265,391l29.492,20.523Z" fill="#ffefdf"/>
            </g>
          </g>
          <path id="Caminho_50149" data-name="Caminho 50149" d="M169.028,308.8l-7.3-52.977H187.8c1.726,5.839,3.9,14.415,3.836,20.348-.58,11-1.391,23.838-2.174,34.7-.906,12.552-1.806,22.453-2.207,23.827-.833,2.861-3.4,4.229-5.428,5.692L170.1,326.478c.785-.556,1.246-.817,1.246-.817L169.028,308.8Z" fill="#683534"/>
          <g id="Grupo_9938" data-name="Grupo 9938">
            <path id="Caminho_50150" data-name="Caminho 50150" d="M144.935,266.217H168.16l11.468,57.008,2.193,10.9,9.822,47.882-12.386,4.547c-5.824-12.126-12.618-23.354-13.355-24.589-.012-.022-.025-.041-.034-.056-1.3-2-2.322-20.581-2.322-20.581s-.125-.269-.357-.764c-.015-.035-.034-.072-.05-.11-.106-.225-.232-.495-.373-.8-.047-.1-.1-.207-.147-.316q-.311-.663-.705-1.511c-.081-.175-.166-.353-.254-.538-.044-.1-.091-.2-.138-.294-1.052-2.25-2.446-5.22-4.007-8.526-5.379-11.4-12.751-26.843-15.038-30.709C139.726,293.114,143,275.327,144.935,266.217Z" fill="#444"/>
            <path id="Caminho_50151" data-name="Caminho 50151" d="M144.935,266.217h2.8c-1.322,10.6-3.037,26.119-2.049,28.6,1.012,2.538,10.462,20.631,16.7,32.5.194.376.389.746.58,1.107.022.04.044.081.062.121q.4.753.768,1.457c.019.035.038.069.053.1.072.135.141.269.213.4q.574,1.1,1.087,2.067c.113.217.226.43.333.633s.213.408.316.6c.091.169.179.335.26.495s.169.32.247.47c.063.116.123.228.179.338.05.094.1.188.147.276.091.172.176.335.257.489.032.056.06.11.088.166l.89,1.685s.617,19.907,2.209,23.231c.009.022.021.047.034.075.769,1.678,7.28,13.4,12.041,25.523h-2.894c-5.824-12.126-12.618-23.354-13.355-24.589-.012-.022-.025-.041-.034-.056-1.3-2-2.322-20.581-2.322-20.581l-.028-.059c-.015-.035-.037-.078-.063-.138-.006-.013-.012-.025-.018-.041s-.028-.053-.041-.085-.035-.071-.053-.112c-.044-.1-.094-.2-.154-.329-.015-.035-.031-.072-.05-.11-.106-.225-.229-.492-.373-.8-.047-.1-.1-.207-.147-.316-.207-.439-.442-.946-.705-1.511-.085-.175-.166-.353-.254-.538-.044-.1-.091-.2-.138-.294-.986-2.109-2.271-4.85-3.715-7.909-.094-.2-.191-.41-.292-.617-5.379-11.4-12.751-26.843-15.038-30.709C139.726,293.114,143,275.327,144.935,266.217Z" fill="#2a2b2b"/>
          </g>
          <g id="Grupo_9940" data-name="Grupo 9940">
            <path id="Caminho_50152" data-name="Caminho 50152" d="M219.029,402.329c-2.481-.347-11.43-1.071-14.108-2.166-2.079-.85-7.178-2.661-8.687-3.255l-4.134-22.32-17.455,5.3,10.086,20.88a117.838,117.838,0,0,0,2.051,13.226l33.828-10.385A2.06,2.06,0,0,0,219.029,402.329Z" fill="#f3803d"/>
            <g id="Grupo_9939" data-name="Grupo 9939">
              <path id="Caminho_50153" data-name="Caminho 50153" d="M221.649,406.934,187.82,417.319l-1.039-3.329L220.61,403.6Z" fill="#ffefdf"/>
            </g>
          </g>
        </g>
      </g>
      <path id="Caminho_50154" data-name="Caminho 50154" d="M98.723,346.7s4.339,31.645,38.168,31.871l-2.464-3.015s-25.509-3.446-30.544-27.05Z" fill="#434244"/>
      <g id="Grupo_9974" data-name="Grupo 9974">
        <g id="Grupo_9952" data-name="Grupo 9952">
          <path id="Caminho_50155" data-name="Caminho 50155" d="M201.943,235.98l2.264-.518a5.605,5.605,0,0,1,5.58-3.272c5.947.341,10.692,6.142,12.557,11.27.383,1.073,2.012.381,1.628-.683-2.237-6.145-9.062-13.831-16.457-12.23C204.678,231.159,202.94,233.276,201.943,235.98Z" fill="#444"/>
          <g id="Grupo_9949" data-name="Grupo 9949">
            <g id="Grupo_9948" data-name="Grupo 9948">
              <g id="Grupo_9946" data-name="Grupo 9946">
                <path id="Caminho_50156" data-name="Caminho 50156" d="M236.062,219.9c-.469-.666-12.479,4.546-12.479,4.546a9.272,9.272,0,0,0,.657-6.089l-.015-.056c-.051-.181-.139-.369-.313-.415a.5.5,0,0,0-.257.018,2.6,2.6,0,0,0-1.543,1.506,19.931,19.931,0,0,0-.666,2.118,11.017,11.017,0,0,1-2.256,3.553c-1.53,1.848-.251,6-.251,6s-.289.193-.681.463l3.285,5.749,2.514-1.464,1.845.181c1.335-.048,12.29-6.152,12.105-6.971a5.285,5.285,0,0,0-.209-.684c-.13-.35-.276-.67-.375-.883-.075-.156-.126-.249-.126-.249a8.165,8.165,0,0,0,.031-1.005,4.636,4.636,0,0,0-.1-.962.929.929,0,0,0-.387-.669,5.634,5.634,0,0,0-1.992.286c-2.506.591-6.421,1.784-6.33,1.494.13-.4,7.85-5.1,7.85-5.1a1.756,1.756,0,0,0-.009-.644A1.82,1.82,0,0,0,236.062,219.9Z" fill="#b77158"/>
                <g id="Grupo_9945" data-name="Grupo 9945">
                  <g id="Grupo_9943" data-name="Grupo 9943">
                    <path id="Caminho_50157" data-name="Caminho 50157" d="M237.33,226.219c-.215.1-.436.189-.661.278a20.219,20.219,0,0,1-3.488,1.013c-.858.165-1.423.22-1.49.225.058-.032.557-.3,1.338-.68.836-.406,1.988-.939,3.286-1.45.313-.123.62-.238.917-.348A4.761,4.761,0,0,1,237.33,226.219Z" fill="#8e503d"/>
                  </g>
                  <g id="Grupo_9944" data-name="Grupo 9944">
                    <path id="Caminho_50158" data-name="Caminho 50158" d="M237.8,228.356a21.273,21.273,0,0,1-4.015,1.225,21.271,21.271,0,0,1,3.643-2.107C237.523,227.686,237.668,228.007,237.8,228.356Z" fill="#8e503d"/>
                  </g>
                </g>
                <path id="Caminho_50159" data-name="Caminho 50159" d="M219.048,232.932c.031-.022.07-.043.1-.065a4.908,4.908,0,0,0,.492-.363,1.634,1.634,0,0,0,.3-.387,2.128,2.128,0,0,0,.106-1.31,11.7,11.7,0,0,1-.164-4.315c.411-1.661,1.688-2.963,2.4-4.522.516-1.132.761-2.432,1.607-3.343.1-.109.216-.213.331-.326-.052-.175-.137-.368-.312-.413a.577.577,0,0,0-.258.02,2.577,2.577,0,0,0-1.541,1.509,19.64,19.64,0,0,0-.667,2.114,11.037,11.037,0,0,1-2.252,3.553c-1.535,1.85-.26,6-.26,6s-.306.146-.675.283a.906.906,0,0,0-.087.034l-.272.112Z" fill="#cc836d"/>
              </g>
              <g id="Grupo_9947" data-name="Grupo 9947">
                <path id="Caminho_50160" data-name="Caminho 50160" d="M222.674,233.226l.231-.12a3.471,3.471,0,0,0,.587-.41,4.2,4.2,0,0,0,1.31-4.364,3.433,3.433,0,0,0-.264-.666l-.127-.227-.013.258c0,.163-.021.4-.051.678a12.464,12.464,0,0,1-1.211,4.034c-.129.249-.243.457-.33.594Z" fill="#8e503d"/>
              </g>
            </g>
          </g>
          <g id="Grupo_9950" data-name="Grupo 9950">
            <path id="Caminho_50161" data-name="Caminho 50161" d="M177.986,198.593s4.641,3.925,6.5,5.582a19.937,19.937,0,0,1,4.689,5.684c.775,1.613,8.522,27.208,8.522,27.208l6.963-2.591,2.406-.9,2.9-1.075,2.177-.811,5.094-1.895.406-.15.229.432,5.711,10.955s-4.812,2.415-10.594,5.068c-.511.238-1.022.467-1.542.705-7.236,3.279-15.424,6.645-17.522,6.126a14.385,14.385,0,0,1-4.336-2.512,109.917,109.917,0,0,1-9.73-8.726V208.1Z" fill="#615269"/>
            <path id="Caminho_50162" data-name="Caminho 50162" d="M217.886,228.257l5.934,12.675-3.317,1.248-6.625-12.4Z" fill="#4e4256"/>
            <path id="Caminho_50163" data-name="Caminho 50163" d="M192.76,243.586a24.553,24.553,0,0,0,3.855-4.713.444.444,0,0,1,.821.222,22.011,22.011,0,0,0,.638,4.385.441.441,0,0,1-.85.235,23.174,23.174,0,0,1-.573-3.319,25.356,25.356,0,0,1-3.268,3.813C192.972,244.6,192.348,243.978,192.76,243.586Z" fill="#4e4256"/>
          </g>
          <g id="Grupo_9951" data-name="Grupo 9951">
            <path id="Caminho_50164" data-name="Caminho 50164" d="M195.86,246.924l4.28,36.728.791,6.74a91.99,91.99,0,0,0,40.9-8.116l-.538-1.907-11.375-40.208-29.877,5.932Z" fill="#895652"/>
            <path id="Caminho_50165" data-name="Caminho 50165" d="M195.86,246.924l4.28,36.728.791,6.74a91.99,91.99,0,0,0,40.9-8.116l-.538-1.907c-9.484,3.592-20.741,3.109-28.612-3.14-5.086-4.034-8.321-10.03-10.141-16.264a78.346,78.346,0,0,1-2.5-14.872Z" fill="#683534"/>
          </g>
          <path id="Caminho_50166" data-name="Caminho 50166" d="M200.859,245.927l1.771-.352a25.488,25.488,0,0,1,2.258-11.184l-2.717,1.012A28.239,28.239,0,0,0,200.859,245.927Z" fill="#444"/>
        </g>
        <path id="Caminho_50167" data-name="Caminho 50167" d="M141.064,188.528a4.025,4.025,0,0,0,.159.435c1.186,3.077,4.192,5.134,7.158,6.637,8.987,4.572,19.927,6.265,29.214,2.318,3.567-1.527,6.945-4.011,8.448-7.586a13.94,13.94,0,0,0,.435-8.544,36.74,36.74,0,0,0-3.219-8.163,38.942,38.942,0,0,0,1.993-4.216,13.732,13.732,0,0,0,.807-3.133c.53-4.256-1.543-8.527-4.612-11.518a24.447,24.447,0,0,0-11.051-6.439,16.663,16.663,0,0,0-5.173-.435c-4.794.372-9.342,3.52-12.38,7.1a21.2,21.2,0,0,0-3.9,18.629,30.531,30.531,0,0,0-6.273,6.384A10.306,10.306,0,0,0,141.064,188.528Z" fill="#1d1e1e"/>
        <path id="Caminho_50168" data-name="Caminho 50168" d="M192.625,278.426c-.374-3.536-2.561-10.311-3.352-17.046-1.478-12.593-.254-25.187-2.343-37.7-1.789-10.7-2.5-22.246-13.051-28.064-8.814-4.86-22.155-6.6-28.5,3.026-6.512,9.886-6.135,25.061-6.276,36.376-.205,16.9,1.715,31.1,2.6,39.623,0,0-1.386,28.231-.676,45.7,0,3.375.986,10.287.986,10.287s37.851,1.935,59.713-17.8c0,0-2.3-8.085-2.165-9.96C199.144,300.145,192.625,278.426,192.625,278.426Z" fill="#615269"/>
        <g id="Grupo_9963" data-name="Grupo 9963">
          <g id="Grupo_9962" data-name="Grupo 9962">
            <g id="Grupo_9961" data-name="Grupo 9961">
              <g id="Grupo_9960" data-name="Grupo 9960">
                <path id="Caminho_50169" data-name="Caminho 50169" d="M157.187,191.948s6.321,5.6,7.729,5.268,3.659-2.766,3.659-2.766c-.237-.38-2.022-1.972-1.792-3.009a45.576,45.576,0,0,1,1.835-5.648l-7.76-3.8s-.625,2.278-1.4,4.675C158.674,189.092,157.749,191.631,157.187,191.948Z" fill="#b77158"/>
                <path id="Caminho_50170" data-name="Caminho 50170" d="M159.46,186.661a42,42,0,0,0,5.37,4.67,2.656,2.656,0,0,0,1.95.11,45.708,45.708,0,0,1,1.84-5.645l-7.76-3.805S160.231,184.271,159.46,186.661Z" fill="#8e503d"/>
                <g id="Grupo_9959" data-name="Grupo 9959">
                  <path id="Caminho_50171" data-name="Caminho 50171" d="M159.229,158.7a14.369,14.369,0,0,1,18.163-1.021,7.214,7.214,0,0,1,2.577,2.994c1.449,4.127,2.42,18.769-1.4,25.271s-8.369,4.978-9.97,4.287-9-4.922-10.488-7.693-3.716-16.4-2.426-19.711A13.977,13.977,0,0,1,159.229,158.7Z" fill="#cc836d"/>
                  <path id="Caminho_50172" data-name="Caminho 50172" d="M158.825,157.6a14.372,14.372,0,0,1,18.164-1.021,7.2,7.2,0,0,1,2.576,2.994c1.449,4.127,2.42,18.769-1.4,25.271s-8.368,4.978-9.969,4.286-9-4.921-10.489-7.692-3.715-16.4-2.425-19.712A13.982,13.982,0,0,1,158.825,157.6Z" fill="#b77158"/>
                  <g id="Grupo_9954" data-name="Grupo 9954">
                    <path id="Caminho_50173" data-name="Caminho 50173" d="M171.544,177.393a2.459,2.459,0,0,0-1.064-.2,3.5,3.5,0,0,0,2.021,1.7.5.5,0,0,0,.2.033.509.509,0,0,0,.23-.1,4.113,4.113,0,0,0,1.125-1.148.8.8,0,0,0,.135-.3c.059-.356-.177-.263-.381-.167a3.167,3.167,0,0,1-.742.245A3.216,3.216,0,0,1,171.544,177.393Z" fill="#ea7c6f"/>
                    <path id="Caminho_50174" data-name="Caminho 50174" d="M172.562,178.683c.2-.206.431-.385.638-.587a5.426,5.426,0,0,0,.693-.812c-1.2-.709-1.265-1.9-1.3-3.257a3.948,3.948,0,0,1,1.216-2.952,1.4,1.4,0,0,1,.38-.246c-.064.085-.106.182-.164.268a8.023,8.023,0,0,0-.439.684,4.887,4.887,0,0,0-.317.759,4.812,4.812,0,0,0-.232,1.624,3.992,3.992,0,0,0,.364,1.565,3.128,3.128,0,0,0,1.244,1.4s-.718.963-.79,1.042a4.123,4.123,0,0,1-.612.554,1.436,1.436,0,0,1-.749.358.461.461,0,0,1-.253-.057.874.874,0,0,0,.126-.117c.017-.019.033-.038.049-.058C172.461,178.79,172.511,178.735,172.562,178.683Z" fill="#8e503d"/>
                    <g id="Grupo_9953" data-name="Grupo 9953">
                      <path id="Caminho_50175" data-name="Caminho 50175" d="M165.6,180.08a9.961,9.961,0,0,0,8.62,1.133,7.5,7.5,0,0,1-4.937,1.074A4.947,4.947,0,0,1,165.6,180.08Z" fill="#8e503d"/>
                    </g>
                  </g>
                  <path id="Caminho_50176" data-name="Caminho 50176" d="M158.239,175.329c-.392-.251-2.159-3.261-3.837-1.764s-2.41,4.219-1.2,5.941c1.1,1.571,2.685,3.316,4.912,3.027Z" fill="#b77158"/>
                  <path id="Caminho_50177" data-name="Caminho 50177" d="M154.192,175.686a2.111,2.111,0,0,0-.042,1.127c.313,1.6,1.636,2.948,2.906,4.2a4.121,4.121,0,0,1-.218-2.481c.062-.284.152-.564.186-.852C157.164,176.52,154.961,173.561,154.192,175.686Z" fill="#cc836d"/>
                  <g id="Grupo_9955" data-name="Grupo 9955">
                    <path id="Caminho_50178" data-name="Caminho 50178" d="M157.707,181.532l-.074-.056c-.047-.038-.123-.09-.209-.167a3.3,3.3,0,0,1-.613-.737,3.081,3.081,0,0,1-.429-1.293,2.747,2.747,0,0,1,.357-1.609,1.457,1.457,0,0,1,.124-.192l.033-.046,0-.006v0h0s0,0,0-.008l-.017-.047-.038-.094c-.025-.061-.05-.123-.078-.183a6.853,6.853,0,0,0-.348-.685c-.125-.215-.256-.414-.387-.6a4.139,4.139,0,0,0-.392-.485.956.956,0,0,0-.427-.262.685.685,0,0,0-.391.025.374.374,0,0,0-.189.146.406.406,0,0,0-.034.075.3.3,0,0,1,.014-.082.37.37,0,0,1,.167-.195.748.748,0,0,1,.456-.1,1.174,1.174,0,0,1,.577.248,3.919,3.919,0,0,1,.5.473,6.125,6.125,0,0,1,.476.594,5.759,5.759,0,0,1,.423.708c.032.064.061.128.091.193l.044.1.056.139.039.1c-.016.029-.039.057-.059.086l-.085.124a1.27,1.27,0,0,0-.106.167,2.879,2.879,0,0,0-.385,1.414,3.226,3.226,0,0,0,.237,1.216,3.43,3.43,0,0,0,.446.773c.066.088.128.149.164.2Z" fill="#8e503d"/>
                  </g>
                  <path id="Caminho_50179" data-name="Caminho 50179" d="M180.147,168.832s-1.45-2.18-2.717-2.479-2.018.7-1.61,1.089A27.961,27.961,0,0,0,180.147,168.832Z" fill="#444"/>
                  <path id="Caminho_50180" data-name="Caminho 50180" d="M161.387,169.541s2.559-3.048,4.489-3.729,2.852.368,2.175.947S161.387,169.541,161.387,169.541Z" fill="#444"/>
                  <g id="Grupo_9956" data-name="Grupo 9956">
                    <path id="Caminho_50181" data-name="Caminho 50181" d="M166.032,177.464c-.155.6-1.57.757-3.16.346s-2.752-1.232-2.6-1.834,1.571-.757,3.16-.346S166.188,176.862,166.032,177.464Z" fill="#cc836d"/>
                    <path id="Caminho_50182" data-name="Caminho 50182" d="M182.163,176.25c.148.447-.825,1.17-2.172,1.615s-2.559.444-2.706,0,.824-1.17,2.171-1.615S182.015,175.8,182.163,176.25Z" fill="#ea7c6f"/>
                  </g>
                  <g id="Grupo_9957" data-name="Grupo 9957">
                    <path id="Caminho_50183" data-name="Caminho 50183" d="M163.642,169.638a2.747,2.747,0,0,0,1.428,1.083,1.164,1.164,0,0,1,.839-.5c.824-.049,1.554.984,1.632,2.306s-.527,2.434-1.351,2.482-1.553-.984-1.631-2.306a3.6,3.6,0,0,1,.11-1.143A4.407,4.407,0,0,1,163.642,169.638Z" fill="#1d1e1e"/>
                    <path id="Caminho_50184" data-name="Caminho 50184" d="M166.027,172.789a2.307,2.307,0,0,1-2.883-.926,2.307,2.307,0,0,1,2.883.926Z" fill="#ffefdf"/>
                  </g>
                  <g id="Grupo_9958" data-name="Grupo 9958">
                    <path id="Caminho_50185" data-name="Caminho 50185" d="M179.428,170.154a2.482,2.482,0,0,1-1.291.979,1.054,1.054,0,0,0-.759-.449c-.744-.044-1.4.89-1.475,2.085s.477,2.2,1.221,2.243,1.405-.889,1.475-2.085a3.239,3.239,0,0,0-.1-1.032A4,4,0,0,0,179.428,170.154Z" fill="#1d1e1e"/>
                    <path id="Caminho_50186" data-name="Caminho 50186" d="M177.272,173a2.084,2.084,0,0,0,2.606-.838,2.086,2.086,0,0,0-2.606.838Z" fill="#ffefdf"/>
                  </g>
                </g>
              </g>
            </g>
            <path id="Caminho_50187" data-name="Caminho 50187" d="M163.154,191.975s-5.2-1.8-12.673,1.869c0,0,6.385,7.527,14.1,7.166s6.97-6.547,6.97-6.547S166.059,191.983,163.154,191.975Z" fill="#b77158"/>
          </g>
          <path id="Caminho_50188" data-name="Caminho 50188" d="M182.565,165.3a17.513,17.513,0,0,1-12.96-4.83,10,10,0,0,0,2.787,4.193,14.588,14.588,0,0,1-9.64-3.281,11.368,11.368,0,0,1-4.15,7.459c-.347,2.044-.463,4.191-.81,6.235a5.232,5.232,0,0,0-3.77-1.632,15.243,15.243,0,0,1,25.967-15.808A14.37,14.37,0,0,1,182.565,165.3Z" fill="#1d1e1e"/>
          <path id="Caminho_50189" data-name="Caminho 50189" d="M141.064,188.528a4.025,4.025,0,0,0,.159.435,20.509,20.509,0,0,1,10.156-13.637c-.031-3.085.72-6.479,3.141-8.386a16.547,16.547,0,0,0,6.162-10.338,16.4,16.4,0,0,0,5.625,3.8,5.368,5.368,0,0,1-.633-4.366,36.218,36.218,0,0,0,15.718,5.434,14.779,14.779,0,0,1,3.86,7.943,13.732,13.732,0,0,0,.807-3.133,12.714,12.714,0,0,0-1.82-7.942,16.792,16.792,0,0,0-2.792-3.576,24.447,24.447,0,0,0-11.051-6.439,16.663,16.663,0,0,0-5.173-.435c-4.794.372-9.342,3.52-12.38,7.1a20.5,20.5,0,0,0-4.572,12.2,21.033,21.033,0,0,0,.672,6.431,30.531,30.531,0,0,0-6.273,6.384A10.306,10.306,0,0,0,141.064,188.528Z" fill="#444"/>
          <path id="Caminho_50190" data-name="Caminho 50190" d="M148.271,167.178a27.961,27.961,0,0,1,5.474-6.1c2.919-2.619,6.035-5.276,7.538-8.9a5.944,5.944,0,0,0,2.666,2.531c.293-1.3.594-2.6.894-3.908a41.239,41.239,0,0,0,19.4,7.531,16.792,16.792,0,0,0-2.792-3.576,24.447,24.447,0,0,0-11.051-6.439,16.663,16.663,0,0,0-5.173-.435c-4.794.372-9.342,3.52-12.38,7.1A20.5,20.5,0,0,0,148.271,167.178Z" fill="#595959"/>
          <path id="Caminho_50191" data-name="Caminho 50191" d="M148.257,167.565s.014,3.846-5.129,8.348c-5.184,4.782-2.064,12.615-2.064,12.615l1.221-5.663,7.9-8.621-.361-7.066Z" fill="#444"/>
        </g>
        <path id="Caminho_50192" data-name="Caminho 50192" d="M184.593,211.851c4.84,6.9,9.983,18.032,1.248,24.206a52.2,52.2,0,0,1,2.452,9.427.619.619,0,0,1-1.192.328,52.681,52.681,0,0,1-2.286-9.626.8.8,0,0,1,.043-1.284c8.338-5.627,2.866-16.091-.831-22.721A.328.328,0,0,1,184.593,211.851Z" fill="#4e4256"/>
        <g id="Grupo_9964" data-name="Grupo 9964">
          <path id="Caminho_50193" data-name="Caminho 50193" d="M127.78,312.866s.842-8.991,3.759-11.2,16.49-4.02,17.549-2.888,4.465,11.863,4.465,11.863l-4.477.659s-2.022-7.9-3.243-8.714-11.731,2.364-12.276,2.616-1.83,7.922-1.83,7.922Z" fill="#932f49"/>
          <path id="Caminho_50194" data-name="Caminho 50194" d="M189.34,359.509l-5.826,6.283-82.506,3.153s-1.028-.534-2.285-1.328h-.008c-1.9-1.2-4.326-2.989-4.472-4.417-.244-2.37,2.654-41.516,3.6-43.873s10.786-7.479,10.786-7.479,61.9-3.344,65.863-2.828,11.188,5.127,11.188,5.127Z" fill="#bd4761"/>
          <path id="Caminho_50195" data-name="Caminho 50195" d="M100.656,337.491l4.5-4.745,68.331-4.607,3.573,5.173s.289,21.523-.039,22.817-74.867,4.962-76.108,4.09S100.656,337.491,100.656,337.491Z" fill="#932f49"/>
          <path id="Caminho_50196" data-name="Caminho 50196" d="M100.656,337.491l-.211,3.023,76.732-5.317-.118-1.885-3.572-5.174-68.331,4.607Z" fill="#edd7c3"/>
          <path id="Caminho_50197" data-name="Caminho 50197" d="M102.672,340.149l72.32-4.6-.092,1.131-72.247,4.673Z" fill="#59595b"/>
          <path id="Caminho_50198" data-name="Caminho 50198" d="M189.34,359.509l-5.826,6.283-82.506,3.153s-1.028-.534-2.285-1.328l77.969-5.941,4.43-3.738-1.206-15.46.238-19.1-.2-8.556-5.464-5.807c3.962.516,11.188,5.127,11.188,5.127Z" fill="#932f49"/>
          <path id="Caminho_50199" data-name="Caminho 50199" d="M180.884,311.421s2.511,5.113,2.17,14.451h1.366s-.347-10.164-1.768-13.509Z" fill="#59595b"/>
        </g>
        <path id="Caminho_50200" data-name="Caminho 50200" d="M181.522,328.8s-2.113,32.375-55.122,48.549c0,0,7.8,1.819,10.491,1.219,0,0,20.863-9.623,29.147-15.775,10.983-6.664,17.775-20.522,20.359-33.2Z" fill="#59595b"/>
        <g id="Grupo_9973" data-name="Grupo 9973">
          <path id="Caminho_50201" data-name="Caminho 50201" d="M135.478,257.289l13.254-32.258,1.749-31.187a32.759,32.759,0,0,0-16.107,18.337c-3.238,6.638-11.7,31.491-14.387,42C127.2,253.115,129.058,260.675,135.478,257.289Z" fill="#615269"/>
          <g id="Grupo_9972" data-name="Grupo 9972">
            <path id="Caminho_50202" data-name="Caminho 50202" d="M133.926,251.154c-7.261-4.667-5.142,1.567-13.158,1.829-4.978,5.8,6.773,37.844,6.773,37.844l14.239-3.278C141.983,284.935,135.337,256.05,133.926,251.154Z" fill="#615269"/>
            <g id="Grupo_9971" data-name="Grupo 9971">
              <g id="Grupo_9969" data-name="Grupo 9969">
                <g id="Grupo_9968" data-name="Grupo 9968">
                  <path id="Caminho_50203" data-name="Caminho 50203" d="M147.594,307.543c-1.2.434-3.24-8.162-3.24-8.162l-2.434-.313.515,3.672-1.893,5.06s-1.047.077-2.336.1c-.161,0-.325,0-.491,0a21.259,21.259,0,0,1-2.294-.1c-.068-.005-.138-.015-.2-.021a6.608,6.608,0,0,1-.934-.183,1.461,1.461,0,0,1-.646-.331l.585-4.17s-3.954-4.252-4.164-5.109a13.028,13.028,0,0,1,1.006-3.428c.294-.783.165-2.378.469-3.138l4.079-.119,4.1.636c.467.331,1.833,1.351,2.5,1.876h0c.326.258.664.534,1,.822a17.772,17.772,0,0,1,3.232,3.4,4.3,4.3,0,0,1,.647,1.395C147.774,302.464,148.795,307.111,147.594,307.543Z" fill="#b77158"/>
                  <g id="Grupo_9967" data-name="Grupo 9967">
                    <g id="Grupo_9965" data-name="Grupo 9965">
                      <path id="Caminho_50204" data-name="Caminho 50204" d="M135.421,307.8c-.068-.005-.138-.015-.2-.021.046-.169.11-.39.185-.656.168-.6.381-1.426.594-2.319a14.024,14.024,0,0,0,.368-2.339c.006-.157.011-.3.016-.428s-.01-.237-.016-.327c-.005-.183-.009-.29-.009-.29s.052.093.136.268c.043.086.1.2.151.321s.09.276.139.446a5.5,5.5,0,0,1,.036,2.621,6.563,6.563,0,0,1-1.032,2.264C135.649,307.524,135.525,307.676,135.421,307.8Z" fill="#8e503d"/>
                    </g>
                    <g id="Grupo_9966" data-name="Grupo 9966">
                      <path id="Caminho_50205" data-name="Caminho 50205" d="M138.206,307.895c-.161,0-.325,0-.491,0a1.027,1.027,0,0,1,.027-.106c.168-.6.381-1.426.592-2.317a13.9,13.9,0,0,0,.37-2.341c.006-.157.012-.3.016-.424s-.012-.239-.015-.329c-.006-.186-.01-.288-.01-.288s.05.09.136.264c.041.087.1.2.149.323s.092.278.141.443a5.487,5.487,0,0,1,.034,2.623A6.5,6.5,0,0,1,138.206,307.895Z" fill="#8e503d"/>
                    </g>
                  </g>
                </g>
              </g>
              <g id="Grupo_9970" data-name="Grupo 9970">
                <path id="Caminho_50206" data-name="Caminho 50206" d="M143.745,286.5l-17.87,4.773,1.471,4.478,17.781-4.555Z" fill="#4e4256"/>
              </g>
            </g>
          </g>
        </g>
        <path id="Caminho_50207" data-name="Caminho 50207" d="M139.334,247.906s5.6-11.64,6.447-17.574-.723-10.876,0-11.238,2.17,7.716,1.808,11.815S140.6,250.434,139.334,247.906Z" fill="#4e4256"/>
        <path id="Caminho_50208" data-name="Caminho 50208" d="M183.7,168.832l1.554.577a10.591,10.591,0,0,0,.5,7.711c1.929,3.7,1.076,10.265,1.076,10.265l-4.259-12.779v-3.134Z" fill="#1d1e1e"/>
      </g>
    </g>
    <g id="Grupo_10020" data-name="Grupo 10020">
      <g id="Grupo_9976" data-name="Grupo 9976">
        <path id="Caminho_50209" data-name="Caminho 50209" d="M305.43,181.393a223.2,223.2,0,0,0-66-7.46l4.207,4.573s-6.411.231-9.816,5.546-1.695,19.423,10.217,17.937,30.161-8.819,57.852-4.51c0,0,7.657.077,9.661-5.721S308.323,181.567,305.43,181.393Z" fill="#918178"/>
        <path id="Caminho_50210" data-name="Caminho 50210" d="M245.061,180.16s7.561,2.988,6.768,11.427c-.72,6.56-7.35,11.216-14.475,6.724C230.512,193.7,234.745,179.42,245.061,180.16Z" fill="#6e6659"/>
        <path id="Caminho_50211" data-name="Caminho 50211" d="M245.252,179.852a15.016,15.016,0,0,1,4.433,3.668,11.958,11.958,0,0,1,1.564,2.558,9.985,9.985,0,0,1,.768,3.007,10.705,10.705,0,0,1-.364,3.055,11.8,11.8,0,0,1-1.11,2.865,9.794,9.794,0,0,1-4.462,4.269,8.735,8.735,0,0,1-6.2.329,7.891,7.891,0,0,1-4.882-3.925,10.085,10.085,0,0,1,2.286-11.57,6.86,6.86,0,0,1,6.2-1.295,7.263,7.263,0,0,1,4.9,4.028,4.988,4.988,0,0,1,.35,1.714,6.435,6.435,0,0,1-.178,1.649,8.023,8.023,0,0,1-1.37,2.891,9.053,9.053,0,0,1-2.286,2.177,6.689,6.689,0,0,1-3.089,1.135,5.4,5.4,0,0,1-.9-.022,3.224,3.224,0,0,1-.97-.306,3.749,3.749,0,0,1-1.418-1.234,5.895,5.895,0,0,1-.063-6.453,5.07,5.07,0,0,1,2.692-2.046,3.528,3.528,0,0,1,.852-.169,2.583,2.583,0,0,1,.9-.015,2.443,2.443,0,0,1,.914.225l.436.2c.129.093.251.2.372.3a3.421,3.421,0,0,1,1.042,3.157,2.867,2.867,0,0,1-1.964,2.384,3.986,3.986,0,0,1-2.827-.6,3.721,3.721,0,0,0,2.642.08,2.087,2.087,0,0,0,1.132-1.958,2.162,2.162,0,0,0-.933-1.885,2.022,2.022,0,0,0-1.9.117,3.423,3.423,0,0,0-2.339,3.421,3.76,3.76,0,0,0,.632,2.112,1.827,1.827,0,0,0,.683.61c.115.094.249.07.368.124a3.825,3.825,0,0,0,.507.01c2.949-.293,5.934-4.147,4.9-6.9a5.366,5.366,0,0,0-3.581-2.858,4.892,4.892,0,0,0-4.447.9,8.132,8.132,0,0,0-1.8,9.185,5.912,5.912,0,0,0,3.7,2.944,6.765,6.765,0,0,0,4.837-.237c3.039-1.359,4.846-4.99,4.774-8.37a8.717,8.717,0,0,0-.246-2.536,11.735,11.735,0,0,0-1.006-2.465A16.123,16.123,0,0,0,245.252,179.852Z" fill="#564c44"/>
        <path id="Caminho_50212" data-name="Caminho 50212" d="M265.967,196.765s5.456-15.7-8.09-22.73a7.7,7.7,0,0,1,6.22.281,21.941,21.941,0,0,1,6.216,21.483Z" fill="#2a2b2b"/>
        <path id="Caminho_50213" data-name="Caminho 50213" d="M292.665,196.765s4.9-14.1-7.264-20.408a6.917,6.917,0,0,1,5.585.253,19.7,19.7,0,0,1,5.581,19.288Z" fill="#2a2b2b"/>
      </g>
      <g id="Grupo_9977" data-name="Grupo 9977">
        <path id="Caminho_50214" data-name="Caminho 50214" d="M259.885,198.087s-17.555,4.01-21.162,8.634-3.686,20.383-4.181,21.986,4.677,7.294,4.181,9-8.683,7.561-9.751,12.1-1.481,39.938,5.57,44.754,24.5,4.845,39.729,1.987-8.87-12.2-8.87-12.2l-13.565-13.664-4.7-22.4-.96-23.851L253.22,202.6Z" fill="#444"/>
        <path id="Caminho_50215" data-name="Caminho 50215" d="M304.636,264.2c-.439,8.555-2.586,17.255-7.04,23.031a21.344,21.344,0,0,1-4.959,4.673,30.519,30.519,0,0,1-12.05,4.467c-7.713,1.358-16.2,1.049-22.371-5.674-4.372-4.759-6.964-12.1-8.909-19.432a168.521,168.521,0,0,1-5.476-38.849c-.353-14.229,3.421-24.019,9.389-29.82,7.62-7.419,18.818-8.337,29.574-3.726a25.631,25.631,0,0,1,10.2,7.53c6.306,7.9,8.288,20.516,9.86,32.266C303.974,247.094,305.072,255.641,304.636,264.2Z" fill="#2a2b2b"/>
        <path id="Caminho_50216" data-name="Caminho 50216" d="M292.637,291.9a30.519,30.519,0,0,1-12.05,4.467c-7.713,1.358-16.2,1.049-22.371-5.674-4.372-4.759-6.964-12.1-8.909-19.432a168.521,168.521,0,0,1-5.476-38.849c-.353-14.229,3.421-24.019,9.389-29.82.708,3.619-.414,8.543-1.5,12.4-3.176,11.227-4.211,23.883-1.991,35.567s7.9,22.22,15.666,27.127c5.306,3.356,11.235,4,16.827,6.213A22.718,22.718,0,0,1,292.637,291.9Z" fill="#444"/>
      </g>
      <g id="Grupo_10019" data-name="Grupo 10019">
        <g id="Grupo_9985" data-name="Grupo 9985">
          <g id="Grupo_9984" data-name="Grupo 9984">
            <g id="Grupo_9983" data-name="Grupo 9983">
              <g id="Grupo_9981" data-name="Grupo 9981">
                <path id="Caminho_50217" data-name="Caminho 50217" d="M377.849,273.324c.364-.991-14.055-9.951-14.055-9.951a12.023,12.023,0,0,0,6.977-3.792l.049-.057a.692.692,0,0,0,.21-.641.641.641,0,0,0-.208-.26,3.371,3.371,0,0,0-2.745-.534,25.748,25.748,0,0,0-2.749.853,14.266,14.266,0,0,1-5.453.216c-3.1-.268-6.579,4.158-6.579,4.158s-.42-.166-1-.384l-3.705,7.744,3.415,1.6,1.169,2.1c1.036,1.388,15.629,8.564,16.365,7.762a6.936,6.936,0,0,0,.576-.726c.276-.4.51-.789.664-1.051.111-.2.172-.319.172-.319a10.6,10.6,0,0,0,1.1-.709,6.015,6.015,0,0,0,.955-.812,1.206,1.206,0,0,0,.428-.906,7.317,7.317,0,0,0-1.775-1.913c-2.48-2.236-6.64-5.53-6.264-5.647.525-.158,11.234,4.6,11.234,4.6a2.289,2.289,0,0,0,.68-.485A2.354,2.354,0,0,0,377.849,273.324Z" fill="#b77158"/>
                <g id="Grupo_9980" data-name="Grupo 9980">
                  <g id="Grupo_9978" data-name="Grupo 9978">
                    <path id="Caminho_50218" data-name="Caminho 50218" d="M372.051,279.336c-.26-.159-.523-.324-.784-.5a26.092,26.092,0,0,1-3.653-2.971c-.81-.793-1.285-1.354-1.34-1.422.077.038.733.37,1.713.924,1.049.592,2.468,1.427,3.97,2.434.363.244.711.486,1.048.721A6.083,6.083,0,0,1,372.051,279.336Z" fill="#b54b57"/>
                  </g>
                  <g id="Grupo_9979" data-name="Grupo 9979">
                    <path id="Caminho_50219" data-name="Caminho 50219" d="M370.118,281.411a27.513,27.513,0,0,1-4.269-3.377,27.65,27.65,0,0,1,4.935,2.33C370.63,280.625,370.395,281.017,370.118,281.411Z" fill="#b54b57"/>
                  </g>
                </g>
                <path id="Caminho_50220" data-name="Caminho 50220" d="M351.4,264.8c.045.017.1.043.143.06a6.386,6.386,0,0,0,.751.257,2.128,2.128,0,0,0,.637.039,2.749,2.749,0,0,0,1.475-.854c1.39-1.261,2.721-2.688,4.48-3.358,2.074-.789,4.4-.387,6.591-.779,1.588-.286,3.156-.983,4.752-.754.19.028.385.074.59.113a.7.7,0,0,0,.211-.638.744.744,0,0,0-.212-.26,3.347,3.347,0,0,0-2.746-.53,25.788,25.788,0,0,0-2.747.849,14.313,14.313,0,0,1-5.449.221c-3.106-.271-6.588,4.149-6.588,4.149s-.382-.219-.8-.511c-.028-.021-.065-.045-.1-.068l-.32-.207Z" fill="#cc836d"/>
              </g>
              <g id="Grupo_9982" data-name="Grupo 9982">
                <path id="Caminho_50221" data-name="Caminho 50221" d="M353.766,268.88l.3.158a4.41,4.41,0,0,0,.871.323,5.449,5.449,0,0,0,5.619-1.823,4.464,4.464,0,0,0,.515-.773l.149-.3-.285.177c-.176.118-.441.271-.761.445a16.153,16.153,0,0,1-5.194,1.686c-.361.046-.666.078-.878.086Z" fill="#8e503d"/>
              </g>
            </g>
          </g>
          <path id="Caminho_50222" data-name="Caminho 50222" d="M309.513,244.937q-3.9,1.608-7.746,3.306c12.852,11.038,44.775,26.112,46.552,25.508,1.665-.559,3.069-5.751,3.733-9.542a29.669,29.669,0,0,0,.412-3.044c.165-2.517-22.574-16.677-29.6-20.99C318.107,240.77,313.91,243.123,309.513,244.937Z" fill="#f3803d"/>
          <path id="Caminho_50223" data-name="Caminho 50223" d="M352.464,261.165c.165-2.517-22.574-16.677-29.6-20.99a27.99,27.99,0,0,0-7.266,2.111,15.529,15.529,0,0,0-1.153,2.2c-.162.373-.286.851-.013,1.155a.756.756,0,0,0,.773.163,2.128,2.128,0,0,0,.717-.439c1.275-1.018,2.552-2.053,3.812-3.1a153.823,153.823,0,0,0,26.782,19.288,38.562,38.562,0,0,0,5.537,2.655A29.669,29.669,0,0,0,352.464,261.165Z" fill="#f9a050"/>
        </g>
        <path id="Caminho_50224" data-name="Caminho 50224" d="M262.162,370.649l-8.314,13.217,12.521,8.447,9.015-13.049Z" fill="#b77158"/>
        <g id="Grupo_9995" data-name="Grupo 9995">
          <g id="Grupo_9994" data-name="Grupo 9994">
            <g id="Grupo_9993" data-name="Grupo 9993">
              <g id="Grupo_9992" data-name="Grupo 9992">
                <g id="Grupo_9988" data-name="Grupo 9988">
                  <g id="Grupo_9986" data-name="Grupo 9986">
                    <path id="Caminho_50225" data-name="Caminho 50225" d="M306,335.846l-30.316,46.021-15.8-11.619,28.273-43.8Z" fill="#385077"/>
                    <path id="Caminho_50226" data-name="Caminho 50226" d="M274.434,412.617a2.051,2.051,0,0,0,.064-2.046c-1.251-2.18-6.2-9.715-6.958-12.516-.592-2.176-.007-5.548.284-6.946l-13.263-8.661a123.212,123.212,0,0,0-9.535,9.865Z" fill="#444"/>
                    <path id="Caminho_50227" data-name="Caminho 50227" d="M272.357,415.514l-29.408-20.3,2.077-2.9,29.408,20.3Z" fill="#2a2b2b"/>
                  </g>
                  <path id="Caminho_50228" data-name="Caminho 50228" d="M313.126,293.605c-.011-.419-.019-.839-.03-1.256q-.03-1.347-.061-2.663c-.011-.57-.025-1.131-.039-1.687-.064-2.649-.125-5.145-.181-7.366H288.388c1.253,13.164,3.16,36.966,1.084,41.933-.062.15-.536.939-1.312,2.2L306,336.078c3.092-5.373,7.353-10.836,7.46-12.111C313.682,321.313,313.421,306.761,313.126,293.605Z" fill="#683534"/>
                  <g id="Grupo_9987" data-name="Grupo 9987">
                    <path id="Caminho_50229" data-name="Caminho 50229" d="M313.035,289.686a20.168,20.168,0,0,1-2.168-2.132,16.361,16.361,0,0,1-3.617-6.921h1.145a15.213,15.213,0,0,0,2.191,4.773c.158.227,1.284,1.475,2.41,2.593C313.01,288.555,313.024,289.116,313.035,289.686Z" fill="#243754"/>
                  </g>
                </g>
                <g id="Grupo_9991" data-name="Grupo 9991">
                  <g id="Grupo_9989" data-name="Grupo 9989">
                    <path id="Caminho_50230" data-name="Caminho 50230" d="M299.825,383.132l2.8,16.98,13.423-2.182-1.6-16.062Z" fill="#b77158"/>
                    <path id="Caminho_50231" data-name="Caminho 50231" d="M336.629,408.143a2.093,2.093,0,0,0-1.353-1.558c-2.419-.792-11.239-3.117-13.72-4.691-1.928-1.222-3.8-4.106-4.543-5.334l-15.754,2.322a120.029,120.029,0,0,0-.316,13.593Z" fill="#444"/>
                    <path id="Caminho_50232" data-name="Caminho 50232" d="M337.072,411.658l-35.686,4.332-.443-3.515,35.686-4.332Z" fill="#2a2b2b"/>
                  </g>
                  <path id="Caminho_50233" data-name="Caminho 50233" d="M270.747,281.952l5.057-.02,1.151-.005,3.131-.013,1.137-.006,14.546-.061,17.774,63.547,4.977,38.472-21.2.907-3.206-32.748s-19.219-45.89-22.5-54.253c-.142-.365-.281-.724-.421-1.081-.564-1.436-1.1-2.806-1.609-4.091-.139-.357-.277-.705-.409-1.048-2.267-5.761-3.772-9.575-3.772-9.575Z" fill="#895652"/>
                  <g id="Grupo_9990" data-name="Grupo 9990">
                    <path id="Caminho_50234" data-name="Caminho 50234" d="M276.955,281.927a14.782,14.782,0,0,1-7.373,10.673c-.139-.357-.277-.705-.409-1.048a13.667,13.667,0,0,0,6.631-9.62Z" fill="#243754"/>
                  </g>
                </g>
              </g>
            </g>
          </g>
        </g>
        <g id="Grupo_10011" data-name="Grupo 10011">
          <g id="Grupo_10009" data-name="Grupo 10009">
            <g id="Grupo_10006" data-name="Grupo 10006">
              <g id="Grupo_10005" data-name="Grupo 10005">
                <g id="Grupo_9997" data-name="Grupo 9997">
                  <g id="Grupo_9996" data-name="Grupo 9996">
                    <path id="Caminho_50235" data-name="Caminho 50235" d="M278.99,191.519c.278.278,12.486,9.312,12.486,9.312s-.281-5.565-.414-8.464c-.039-.9-.067-1.54-.067-1.682,0-1.159.99-6.179.99-6.179l-12.319-5.634s-.195,2.541-.384,5.345A62.967,62.967,0,0,0,278.99,191.519Z" fill="#b77158"/>
                    <path id="Caminho_50236" data-name="Caminho 50236" d="M279.282,184.217c3.422,2.485,10.96,7.922,11.713,8.136a.574.574,0,0,0,.067.014c-.039-.9-.067-1.54-.067-1.682,0-1.159.99-6.179.99-6.179l-12.319-5.634S279.471,181.413,279.282,184.217Z" fill="#8e503d"/>
                  </g>
                </g>
                <g id="Grupo_10004" data-name="Grupo 10004">
                  <g id="Grupo_9998" data-name="Grupo 9998">
                    <path id="Caminho_50237" data-name="Caminho 50237" d="M277.979,179.3a5.869,5.869,0,0,0,1.685,2.107h0a12.26,12.26,0,0,0,.986.787c1.446,1.036,14.977,6.835,17.062,6.557s4.049-7.442,4.157-8.2c.67-4.623,2.514-18.907,2.514-18.907-5.143-15.565-23.488-7.505-25.573-5.976S277.979,179.3,277.979,179.3Z" fill="#b77158"/>
                    <path id="Caminho_50238" data-name="Caminho 50238" d="M279.667,181.409a12.26,12.26,0,0,0,.986.787c1.446,1.036,14.977,6.835,17.062,6.557s4.049-7.442,4.157-8.2c-1.3,3.146-2.765,7.5-4.241,7.358C295.407,187.708,281.309,182.274,279.667,181.409Z" fill="#cc836d"/>
                  </g>
                  <g id="Grupo_10003" data-name="Grupo 10003">
                    <path id="Caminho_50239" data-name="Caminho 50239" d="M302.579,167.853s-.956-4.052-2.757-3.4-1.282,1.033-1.282,1.033Z" fill="#38102b"/>
                    <path id="Caminho_50240" data-name="Caminho 50240" d="M283.051,166.119s4.6-5.295,6.481-3.414c1.1,1.1.335,1.846.335,1.846Z" fill="#38102b"/>
                    <g id="Grupo_9999" data-name="Grupo 9999">
                      <path id="Caminho_50241" data-name="Caminho 50241" d="M285.74,169.292c0,1.438.726,2.6,1.622,2.6s1.621-1.166,1.621-2.6-.726-2.6-1.621-2.6S285.74,167.854,285.74,169.292Z" fill="#1d1e1e"/>
                      <path id="Caminho_50242" data-name="Caminho 50242" d="M284.191,167.839a3.338,3.338,0,0,0,3.579,1.448,3.338,3.338,0,0,0-3.579-1.448Z" fill="#ffefdf"/>
                    </g>
                    <g id="Grupo_10000" data-name="Grupo 10000">
                      <path id="Caminho_50243" data-name="Caminho 50243" d="M301.071,170.269c0,1.083-.547,1.962-1.222,1.962s-1.222-.879-1.222-1.962.547-1.963,1.222-1.963S301.071,169.185,301.071,170.269Z" fill="#1d1e1e"/>
                      <path id="Caminho_50244" data-name="Caminho 50244" d="M302.12,169.316a2.7,2.7,0,0,1-2.546,1.031,2.7,2.7,0,0,1,2.546-1.031Z" fill="#ffefdf"/>
                    </g>
                    <path id="Caminho_50245" data-name="Caminho 50245" d="M299.865,176.279c.213.569,1.444.635,2.749.147s2.19-1.347,1.977-1.917-1.444-.636-2.749-.147S299.652,175.709,299.865,176.279Z" fill="#cc836d"/>
                    <path id="Caminho_50246" data-name="Caminho 50246" d="M283.447,173.618c-.223.86,1.192,1.97,3.16,2.48s3.745.226,3.968-.633-1.193-1.97-3.161-2.48S283.669,172.759,283.447,173.618Z" fill="#cc836d"/>
                    <g id="Grupo_10001" data-name="Grupo 10001">
                      <path id="Caminho_50247" data-name="Caminho 50247" d="M297.053,179.762l-.334.21a5.925,5.925,0,0,1-.975.479,7.266,7.266,0,0,1-6.915-.916,5.868,5.868,0,0,1-.817-.715l-.268-.29.334.209a8.8,8.8,0,0,0,.924.511,10.883,10.883,0,0,0,6.649.88,8.474,8.474,0,0,0,1.025-.253Z" fill="#8e503d"/>
                    </g>
                    <g id="Grupo_10002" data-name="Grupo 10002">
                      <path id="Caminho_50248" data-name="Caminho 50248" d="M291.691,174.538a4.825,4.825,0,0,0,5.17.417,2.753,2.753,0,0,1-2.747,2.169A2.811,2.811,0,0,1,291.691,174.538Z" fill="#cc836d"/>
                      <path id="Caminho_50249" data-name="Caminho 50249" d="M294.5,176.789a3.527,3.527,0,0,0,1.136-.417,1.579,1.579,0,0,0,.8-.955.927.927,0,0,0-.447-.985,1.73,1.73,0,0,0-.763-.287,1.951,1.951,0,0,0-.307-.02c-.006-.127,0-.265,0-.422a12.718,12.718,0,0,1,.313-2.513,12.431,12.431,0,0,1,1.326-3.426,23.666,23.666,0,0,1-.539,3.6c-.193.879-.429,1.664-.626,2.278a1.807,1.807,0,0,1,.937.2,1.764,1.764,0,0,1,.729.645,1.46,1.46,0,0,1,.168,1.1,2.037,2.037,0,0,1-1.286,1.408,2.994,2.994,0,0,1-1.428.2,2.734,2.734,0,0,1-.913-.238c-.146-.07-.242-.127-.284-.151A3.4,3.4,0,0,0,294.5,176.789Z" fill="#8e503d"/>
                    </g>
                  </g>
                </g>
              </g>
            </g>
            <g id="Grupo_10008" data-name="Grupo 10008">
              <path id="Caminho_50250" data-name="Caminho 50250" d="M279.97,179.852a8.491,8.491,0,0,1-5.9-3.256,6.793,6.793,0,0,1-.587-.876c-.8-1.443-1.024-6.449,1.025-7.612,1.436-.814,2.481.367,2.978,1.149v0a4.63,4.63,0,0,1,.324.592Z" fill="#cc836d"/>
              <path id="Caminho_50251" data-name="Caminho 50251" d="M279.97,179.852a8.491,8.491,0,0,1-5.9-3.256q-.139-.211-.245-.4c-.8-1.443-1.025-6.449,1.024-7.611a1.967,1.967,0,0,1,2.637.676v0a4.63,4.63,0,0,1,.324.592Z" fill="#b77158"/>
              <path id="Caminho_50252" data-name="Caminho 50252" d="M273.859,172.084a2.152,2.152,0,0,0,.094,1.212c.56,1.68,2.238,2.962,3.844,4.152a4.217,4.217,0,0,1-.563-2.63c.034-.312.1-.622.1-.935C277.35,172.624,274.466,169.717,273.859,172.084Z" fill="#cc836d"/>
              <g id="Grupo_10007" data-name="Grupo 10007">
                <path id="Caminho_50253" data-name="Caminho 50253" d="M278.6,177.926l-.091-.052c-.058-.035-.152-.082-.259-.154a3.639,3.639,0,0,1-.792-.716,3.226,3.226,0,0,1-.652-1.334,2.784,2.784,0,0,1,.2-1.764,1.5,1.5,0,0,1,.116-.221l.032-.053c.008-.014,0-.005.005-.007v0h0l0-.009-.026-.048-.054-.1c-.037-.063-.073-.126-.112-.187a7.7,7.7,0,0,0-.484-.692c-.169-.214-.343-.412-.516-.593a4.592,4.592,0,0,0-.508-.472,1.125,1.125,0,0,0-.52-.23.834.834,0,0,0-.442.073.416.416,0,0,0-.2.179.392.392,0,0,0-.029.084.208.208,0,0,1,.005-.089.4.4,0,0,1,.166-.229.9.9,0,0,1,.507-.16,1.429,1.429,0,0,1,.689.2,4.459,4.459,0,0,1,.625.449,6.6,6.6,0,0,1,.617.579,6.022,6.022,0,0,1,.571.708c.045.064.087.129.129.2l.062.1.082.142.056.1c-.014.033-.037.066-.055.1l-.082.142a1.3,1.3,0,0,0-.1.192,2.947,2.947,0,0,0-.259,1.56,3.331,3.331,0,0,0,.424,1.274,3.673,3.673,0,0,0,.607.775c.085.086.163.144.211.189Z" fill="#8e503d"/>
              </g>
            </g>
          </g>
          <g id="Grupo_10010" data-name="Grupo 10010">
            <path id="Caminho_50254" data-name="Caminho 50254" d="M306.541,160.245a.886.886,0,0,1,.833,1.162,1.441,1.441,0,0,1-1.33.881,2.452,2.452,0,0,1-1.731-.361,19.184,19.184,0,0,0-24.682-1.634,14.357,14.357,0,0,1,.313,2.468,16.114,16.114,0,0,1-2.044,8.254,5.907,5.907,0,0,0-3.678-2.709,18.4,18.4,0,0,1-.713-9.255c.064-.393.145-.786.233-1.17-1.451-.714-2.316-3.053-1.315-4.312a2.468,2.468,0,0,1,.753-4.639,6.563,6.563,0,0,1,10.426-4.368,3.024,3.024,0,0,1,5.145.049,5.448,5.448,0,0,1,8.606,1.875,5.189,5.189,0,0,1,7.148,6.643,1.527,1.527,0,1,1,1.3,2.74,2.22,2.22,0,0,1,.738,4.376Z" fill="#38102b"/>
            <path id="Caminho_50255" data-name="Caminho 50255" d="M306.541,160.245a.886.886,0,0,1,.833,1.162,1.441,1.441,0,0,1-1.33.881,2.452,2.452,0,0,1-1.731-.361,19.184,19.184,0,0,0-24.682-1.634,14.357,14.357,0,0,1,.313,2.468,3.128,3.128,0,0,1-1.675-.048,1.748,1.748,0,0,1-1.082-2.188,1.088,1.088,0,1,1-1.346-1.675,5.345,5.345,0,0,1-2.332.2c.064-.393.145-.786.233-1.17-1.451-.714-2.316-3.053-1.315-4.312a2.539,2.539,0,0,1-1.314-2.6,2.48,2.48,0,0,1,1.266-1.763,2.4,2.4,0,0,1,.8-.28,6.563,6.563,0,0,1,10.426-4.368,3.024,3.024,0,0,1,5.145.049,5.448,5.448,0,0,1,8.606,1.875,5.189,5.189,0,0,1,7.148,6.643,1.527,1.527,0,1,1,1.3,2.74,2.313,2.313,0,0,1,2.476,1.835,2.02,2.02,0,0,1,.016.5A2.322,2.322,0,0,1,306.541,160.245Z" fill="#4a0f2f"/>
            <path id="Caminho_50256" data-name="Caminho 50256" d="M308.3,158.2a6.744,6.744,0,0,1-2.965-.208,3.437,3.437,0,0,1-1.794-1.106,1.673,1.673,0,0,1-.065-1.995,2.785,2.785,0,0,1-3.245-4.127,4.874,4.874,0,0,1-5.818-1.4,4.409,4.409,0,0,1-3.758,1.932,4.118,4.118,0,0,0,3.093,1.53,11.792,11.792,0,0,1-7.693,1.539,2.828,2.828,0,0,0,2.124-2.092,3.108,3.108,0,0,1-4.5-.5,11.63,11.63,0,0,1-2.733,2.588,4,4,0,0,1-3.606.433,2.449,2.449,0,0,1-1.346-3.11,3.888,3.888,0,0,1-3.093-1.522,3.8,3.8,0,0,1-.521-.954,2.4,2.4,0,0,1,.8-.28,6.563,6.563,0,0,1,10.426-4.368,3.024,3.024,0,0,1,5.145.049,5.448,5.448,0,0,1,8.606,1.875,5.189,5.189,0,0,1,7.148,6.643,1.527,1.527,0,1,1,1.3,2.74,2.313,2.313,0,0,1,2.476,1.835A2.02,2.02,0,0,1,308.3,158.2Z" fill="#5f1234"/>
          </g>
        </g>
        <path id="Caminho_50257" data-name="Caminho 50257" d="M319.639,279.139a18.3,18.3,0,0,0-3.156-4.469c-.345-3.15-.772-6.945-1.263-11.133-2.044-17.39-5.2-41.47-8.278-53.754a29.651,29.651,0,0,0-2.276-6.724,62.863,62.863,0,0,0-6.459-6.026.127.127,0,0,1-.032-.024.008.008,0,0,0-.008-.008,29.792,29.792,0,0,0-3.046-1.672c-.035-.081-.064-.165-.1-.244-1.293-2.757-4.048-4.565-6.9-5.62a21.666,21.666,0,0,0-9.627-1.23c-3.334.334-5.028,2.612-4.193,5.194-1.721.922-3.358,1.928-3.982,2.37-7.06,5-9.264,22.446-9.488,40.676-.171,14.23.864,28.935,1.74,38.591a10.193,10.193,0,0,0-2.372,10.286,10.522,10.522,0,0,0,5.465,6.254,24.734,24.734,0,0,0,8.2,2.254,79.038,79.038,0,0,0,40.918-5.4c2.549-1.068,5.368-2.692,5.747-5.43A6.831,6.831,0,0,0,319.639,279.139Z" fill="#f3803d"/>
        <path id="Caminho_50258" data-name="Caminho 50258" d="M318.021,253.309c1.062-4.293,3.085-8.556,4.506-12.753.025-.074.062-.135.092-.2a33.361,33.361,0,0,1-2.521-7.441c-2.28-5.589-12.3-30.1-13.485-32.079a9.155,9.155,0,0,0-3.478-2.372,74.852,74.852,0,0,0-8.014-3.134s5.081,21.364,5.489,22.029,3.27,27.919,3.27,27.919,7.615,7.585,13.906,11.2A9.633,9.633,0,0,1,318.021,253.309Z" fill="#f3803d"/>
        <rect id="Retângulo_7487" data-name="Retângulo 7487" width="119.596" height="74.617" rx="4.443" transform="translate(186.539 310.11) rotate(0.253)" fill="#3b7564"/>
        <rect id="Retângulo_7488" data-name="Retângulo 7488" width="111.315" height="67.636" rx="4.443" transform="translate(190.649 313.303) rotate(0.253)" fill="#4c8c7b"/>
        <g id="Grupo_10013" data-name="Grupo 10013">
          <g id="Grupo_10012" data-name="Grupo 10012">
            <rect id="Retângulo_7489" data-name="Retângulo 7489" width="4.652" height="108.545" transform="translate(191.726 324.315) rotate(-89.747)" fill="#3b7564"/>
            <rect id="Retângulo_7490" data-name="Retângulo 7490" width="4.652" height="108.545" transform="translate(191.67 337.06) rotate(-89.747)" fill="#3b7564"/>
            <rect id="Retângulo_7491" data-name="Retângulo 7491" width="4.652" height="108.545" transform="translate(191.613 349.805) rotate(-89.747)" fill="#3b7564"/>
            <rect id="Retângulo_7492" data-name="Retângulo 7492" width="4.652" height="108.545" transform="translate(191.557 362.549) rotate(-89.747)" fill="#3b7564"/>
            <rect id="Retângulo_7493" data-name="Retângulo 7493" width="4.652" height="108.545" transform="translate(191.501 375.294) rotate(-89.747)" fill="#3b7564"/>
          </g>
        </g>
        <g id="Grupo_10015" data-name="Grupo 10015">
          <g id="Grupo_10014" data-name="Grupo 10014">
            <path id="Caminho_50259" data-name="Caminho 50259" d="M265.167,310.457l-4.006-.018.033-7.684c0-.76-.465-1.292-.888-1.293l-26.3-.116h0c-.422,0-.894.527-.9,1.285l-.034,7.684-4.007-.017.034-7.685a5.119,5.119,0,0,1,4.9-5.274h.021l26.3.116a5.115,5.115,0,0,1,4.878,5.317Z" fill="#3b7564"/>
          </g>
        </g>
        <g id="Grupo_10018" data-name="Grupo 10018">
          <g id="Grupo_10017" data-name="Grupo 10017">
            <g id="Grupo_10016" data-name="Grupo 10016">
              <path id="Caminho_50260" data-name="Caminho 50260" d="M257.686,302.075c-.782-.643-3.62-6.461-3.571-7.181s-4.412-2.206-4.412-2.206l-.075-6.508-10.052-1.341v.177l-.6,6.579s.109,3.573.1,4.652-.449,5.181-.322,6.484,3.177,3.155,4.159,3.418,1.747,1.982,2.2,2.894,2.332.606,3.858.338a1.84,1.84,0,0,0,1.022-.812c1.084-1.47,2.006-4.413,2.636-4.564.817-.2,3.537.729,3.537.729S258.464,302.714,257.686,302.075Z" fill="#b77158"/>
              <path id="Caminho_50261" data-name="Caminho 50261" d="M242.025,300.658c-1.575-4.126-1.551-8.662-1.482-13.077.014-.869.033-1.738.048-2.607l-1.015-.135v.177l-.6,6.579s.109,3.573.1,4.652-.449,5.181-.322,6.484,3.177,3.155,4.159,3.418,1.747,1.982,2.2,2.894,2.332.606,3.858.338a1.84,1.84,0,0,0,1.022-.812C246.312,307.558,243.4,304.28,242.025,300.658Z" fill="#cc836d"/>
            </g>
          </g>
        </g>
        <path id="Caminho_50262" data-name="Caminho 50262" d="M274.035,210a137.109,137.109,0,0,0-18.46,76.311,30.077,30.077,0,0,1-12.514.6,29.355,29.355,0,0,1-6.693-1.888c-5.144-26.217.61-54.682,16.875-75.884a38.045,38.045,0,0,1,8.93-8.882,34.359,34.359,0,0,1,6.958-3.494,15.121,15.121,0,0,1,6.963-1.108c.633.1.95,1.363,1.526,1.65C278.9,201.65,276.32,206.083,274.035,210Z" fill="#f3803d"/>
        <path id="Caminho_50263" data-name="Caminho 50263" d="M243.061,286.913a29.355,29.355,0,0,1-6.693-1.888c-5.144-26.217.61-54.682,16.875-75.884a38.045,38.045,0,0,1,8.93-8.882,34.359,34.359,0,0,1,6.958-3.494c-9.84,12.309-18.275,25.841-23.427,40.708C240.22,253.307,238.648,270.786,243.061,286.913Z" fill="#f9a050"/>
        <path id="Caminho_50264" data-name="Caminho 50264" d="M271.308,206.87c-.03-.19-.351-.208-.354,0-.094,7.253-2.722,14.17-5.478,20.777a165.057,165.057,0,0,0-6.842,19.159,141.287,141.287,0,0,0-3.9,18.894q-.718,5.267-1.048,10.58c-.223,3.645.2,7.706-2.223,10.723a.971.971,0,0,0-.1.171,35,35,0,0,0,4.314-.76c2.045-4.683.445-10.851.949-15.865a147.9,147.9,0,0,1,4.045-22.4c2.005-7.719,4.913-15.04,7.71-22.49C270.71,219.438,272.353,213.523,271.308,206.87Z" fill="#cc4f29"/>
        <path id="Caminho_50265" data-name="Caminho 50265" d="M312.117,276.474c-10.393,1.273-20.371,2.262-30.748.209a.169.169,0,0,0-.09.326c9.208,2.71,19.075,1.823,28.516.639a66.836,66.836,0,0,1-16.143,5.56,71.064,71.064,0,0,1-9.493,1.393c-2.83.212-5.777-.136-8.542.469a.493.493,0,0,0,0,.942c5.447,1.663,12.979.019,18.454-1.284a73.022,73.022,0,0,0,18.268-7.436C312.7,277.1,312.562,276.42,312.117,276.474Z" fill="#cc4f29"/>
        <path id="Caminho_50266" data-name="Caminho 50266" d="M308.9,225.28c-2.056-7.648-4.14-15.938-7.878-22.954-.251-.472-.96-.142-.84.354,1.867,7.778,4.979,15.308,7.021,23.068,2.056,7.81,3.326,15.72,4.967,23.611.2.948,1.825.754,1.715-.232A161.057,161.057,0,0,0,308.9,225.28Z" fill="#cc4f29"/>
        <path id="Caminho_50267" data-name="Caminho 50267" d="M293.414,197.851c-.423.112-.848.207-1.274.295.413-1.89-.083-4.613-1.726-5.6-.275-.165-.512.151-.4.4a18.143,18.143,0,0,1,1.3,2.586,6.987,6.987,0,0,1,.123,2.736,23.3,23.3,0,0,1-3.77.359c1.062-1.717-.19-4.984-1.546-6.015-.217-.165-.461.107-.419.322.2,1.032,1.006,1.854,1.3,2.886a4.727,4.727,0,0,1-.182,2.8,21.592,21.592,0,0,1-3.168-.312c-.123-.022-.244-.05-.367-.074a9.122,9.122,0,0,1-.413-2.645c.033-.887.44-1.714.428-2.581a.281.281,0,0,0-.475-.2c-1.158,1.143-1.018,3.647-.386,5.244a23.061,23.061,0,0,1-2.862-.867c-.167-.063-.33-.142-.494-.213a13.448,13.448,0,0,1-.028-3.056c.211-1.052.852-1.913,1.093-2.93.056-.238-.214-.494-.442-.339-1.479,1-2.087,3.99-1.533,5.911a16.775,16.775,0,0,0-2.723-1.175.155.155,0,0,0-.149.257c1.975,2.214,5.959,3.17,8.764,3.6a22.962,22.962,0,0,0,9.582-.561A.435.435,0,0,0,293.414,197.851Z" fill="#cc4f29"/>
        <path id="Caminho_50268" data-name="Caminho 50268" d="M320.1,232.912c-2.28-5.589-12.3-30.1-13.485-32.079a9.155,9.155,0,0,0-3.478-2.372,16.025,16.025,0,0,1,2.42,3.606,59.56,59.56,0,0,1,3.173,9.287c1.178,3.847,2.693,7.573,4.207,11.291q3,7.368,6,14.745c.737,1.8.794,3.766,1.923,5.353.185.256.425.529.738.521.473-.016.665-.617.705-1.09a18.3,18.3,0,0,0,.03-2.467A31.628,31.628,0,0,1,320.1,232.912Z" fill="#f9a050"/>
      </g>
      <path id="Caminho_50269" data-name="Caminho 50269" d="M265.032,198.375l2.62,44.29,4.727.154-1.617-47.5A32.975,32.975,0,0,0,265.032,198.375Z" fill="#444"/>
      <path id="Caminho_50270" data-name="Caminho 50270" d="M297.14,196.02s4.5-.1,6.69,2.837l6.647,30.049L312,237.822l-3.393-3.372Z" fill="#444"/>
      <path id="Caminho_50271" data-name="Caminho 50271" d="M260.825,265.612s7.472-12.141,6.827-22.947l3.3-1.32,1.428,1.474s-1.016,20.42-10.191,27.862Z" fill="#444"/>
    </g>
    <g id="Grupo_10055" data-name="Grupo 10055">
      <g id="Grupo_10051" data-name="Grupo 10051">
        <path id="Caminho_50272" data-name="Caminho 50272" d="M391.733,318.22l3.928,7.178-5.622,2.2-3.564-6.174Z" fill="#e79e80"/>
        <g id="Grupo_10033" data-name="Grupo 10033">
          <path id="Caminho_50273" data-name="Caminho 50273" d="M350.77,389.934l5.353,5.593,16.459-14.032,1.371-1.169s2.3-2.116,4.832-4.568c2.756-2.685,5.777-5.778,6.346-7,.713-1.522.433-6.363.433-6.363l-7.821-3.373-4.159,5.689-.6.818L367.95,372.4l-.448.617Z" fill="#b77158"/>
          <path id="Caminho_50274" data-name="Caminho 50274" d="M367.95,372.4l4.632,9.1,1.371-1.169s7.754-7.824,10.287-10.276c1.636-1.4,1.51-4.927.909-5.753-2.826-1.124-10.724,2.165-11.565.418l-.6.818Z" fill="#8e503d"/>
          <g id="Grupo_10022" data-name="Grupo 10022">
            <path id="Caminho_50275" data-name="Caminho 50275" d="M359.043,409.457a1.252,1.252,0,0,0,.3-1.212c-.463-1.462-2.435-6.6-2.526-8.366a10.788,10.788,0,0,1,1.07-4.105l-6.786-6.885a75.281,75.281,0,0,0-6.965,4.646Z" fill="#444"/>
            <path id="Caminho_50276" data-name="Caminho 50276" d="M357.43,410.915l-14.9-15.922,1.614-1.458,14.9,15.922Z" fill="#f7e4d9"/>
            <g id="Grupo_10021" data-name="Grupo 10021">
              <path id="Caminho_50277" data-name="Caminho 50277" d="M355.114,398.947c-.029.005-.058.011-.086.018-.214.05-.479.2-.391.457a.692.692,0,0,0,.275.315,4.6,4.6,0,0,0,1.316.623,3.507,3.507,0,0,0,1.568.249c.55-.083.579-.676.146-.984A4,4,0,0,0,355.114,398.947Z" fill="#f7e4d9"/>
              <path id="Caminho_50278" data-name="Caminho 50278" d="M355.369,400.924q-.043.007-.087.018c-.214.05-.478.2-.39.457a.686.686,0,0,0,.275.315,4.558,4.558,0,0,0,1.316.623,3.521,3.521,0,0,0,1.568.249c.549-.083.579-.677.146-.984A3.992,3.992,0,0,0,355.369,400.924Z" fill="#f7e4d9"/>
              <path id="Caminho_50279" data-name="Caminho 50279" d="M356.178,402.912l-.086.019c-.214.049-.479.2-.391.457a.7.7,0,0,0,.275.315,4.6,4.6,0,0,0,1.316.623,3.523,3.523,0,0,0,1.569.248c.549-.082.579-.676.145-.983A3.992,3.992,0,0,0,356.178,402.912Z" fill="#f7e4d9"/>
            </g>
          </g>
          <path id="Caminho_50280" data-name="Caminho 50280" d="M387.383,347.208c-.007-.256-.012-.512-.019-.767q-.018-.822-.037-1.625c-.007-.347-.016-.69-.024-1.029-.039-1.617-.076-3.14-.11-4.5H372.286c-.343,7.917-1.058,25.59-1.058,25.59s16.293,1.634,16.358.855C387.722,364.116,387.562,355.236,387.383,347.208Z" fill="#2a2b2b"/>
          <g id="Grupo_10023" data-name="Grupo 10023">
            <path id="Caminho_50281" data-name="Caminho 50281" d="M387.327,344.816a12.316,12.316,0,0,1-1.323-1.3,9.976,9.976,0,0,1-2.207-4.224h.7a9.271,9.271,0,0,0,1.336,2.913c.1.139.784.9,1.471,1.583C387.311,344.126,387.32,344.469,387.327,344.816Z" fill="#243754"/>
            <path id="Caminho_50282" data-name="Caminho 50282" d="M387.383,347.208A11.768,11.768,0,0,1,381,339.291h.69a11.081,11.081,0,0,0,5.674,7.15C387.371,346.7,387.376,346.952,387.383,347.208Z" fill="#243754"/>
          </g>
          <g id="Grupo_10030" data-name="Grupo 10030">
            <path id="Caminho_50283" data-name="Caminho 50283" d="M379.558,357.647l4.087,12.459,2.573,34.213-8.191,1.332-4.285-31.471-5.2-13.011Z" fill="#b77158"/>
            <g id="Grupo_10029" data-name="Grupo 10029">
              <path id="Caminho_50284" data-name="Caminho 50284" d="M398.776,410.551a1.277,1.277,0,0,0-.826-.951c-1.476-.483-6.858-1.9-8.373-2.863a11.037,11.037,0,0,1-2.772-3.255l-9.614,1.417a73.239,73.239,0,0,0-.193,8.3Z" fill="#444"/>
              <path id="Caminho_50285" data-name="Caminho 50285" d="M399.046,412.7l-21.777,2.644-.27-2.145,21.777-2.644Z" fill="#f7e4d9"/>
              <g id="Grupo_10028" data-name="Grupo 10028">
                <g id="Grupo_10027" data-name="Grupo 10027">
                  <g id="Grupo_10024" data-name="Grupo 10024">
                    <path id="Caminho_50286" data-name="Caminho 50286" d="M387.819,407.561c-.012.026-.024.053-.035.08-.083.2-.115.5.152.58a.7.7,0,0,0,.419-.037,4.525,4.525,0,0,0,1.277-.69,3.425,3.425,0,0,0,1.112-1.112c.25-.489-.223-.859-.728-.691A3.908,3.908,0,0,0,387.819,407.561Z" fill="#f7e4d9"/>
                  </g>
                  <g id="Grupo_10025" data-name="Grupo 10025">
                    <path id="Caminho_50287" data-name="Caminho 50287" d="M389.6,408.511c-.013.027-.024.053-.035.08-.083.2-.115.5.151.581a.715.715,0,0,0,.42-.037,4.51,4.51,0,0,0,1.276-.691,3.418,3.418,0,0,0,1.113-1.112c.249-.488-.224-.858-.729-.691A3.9,3.9,0,0,0,389.6,408.511Z" fill="#f7e4d9"/>
                  </g>
                  <g id="Grupo_10026" data-name="Grupo 10026">
                    <path id="Caminho_50288" data-name="Caminho 50288" d="M391.711,409.024c-.012.027-.024.053-.035.08-.083.2-.115.5.152.58a.7.7,0,0,0,.419-.036,4.535,4.535,0,0,0,1.276-.691,3.409,3.409,0,0,0,1.113-1.112c.25-.488-.223-.859-.728-.691A3.9,3.9,0,0,0,391.711,409.024Z" fill="#f7e4d9"/>
                  </g>
                </g>
              </g>
            </g>
          </g>
          <g id="Grupo_10032" data-name="Grupo 10032">
            <path id="Caminho_50289" data-name="Caminho 50289" d="M361.52,340.1l3.086-.013.7,0,1.91-.008.7,0,8.876-.037L384.2,363.9l-15.883,5.184s-5.261-16.769-6.267-19.329c-.086-.223-.171-.442-.257-.66l-.981-2.5q-.129-.325-.25-.639c-1.383-3.516-2.3-5.843-2.3-5.843Z" fill="#444"/>
            <g id="Grupo_10031" data-name="Grupo 10031">
              <path id="Caminho_50290" data-name="Caminho 50290" d="M367.914,340.069a13.791,13.791,0,0,1-5.865,9.682c-.087-.223-.172-.443-.258-.66a13.084,13.084,0,0,0,5.429-9.018Z" fill="#243754"/>
              <path id="Caminho_50291" data-name="Caminho 50291" d="M365.309,340.081a9.022,9.022,0,0,1-4.5,6.513q-.129-.325-.25-.639a8.336,8.336,0,0,0,4.046-5.871Z" fill="#243754"/>
            </g>
          </g>
        </g>
        <g id="Grupo_10034" data-name="Grupo 10034">
          <path id="Caminho_50292" data-name="Caminho 50292" d="M375.22,302.275c1.558-.337.24-5.525.156-6.692a50.23,50.23,0,0,1,.161-6.549l-9.4-1.579s.057,2.605-.008,5.383C366.064,295.652,366.685,304.125,375.22,302.275Z" fill="#b77158"/>
          <path id="Caminho_50293" data-name="Caminho 50293" d="M366.129,292.834c2.748,1.417,6.11,3.076,7.147,3.247a2.931,2.931,0,0,0,2.1-.5,50.479,50.479,0,0,1,.167-6.547l-9.4-1.579S366.192,290.065,366.129,292.834Z" fill="#8e503d"/>
        </g>
        <g id="Grupo_10043" data-name="Grupo 10043">
          <g id="Grupo_10042" data-name="Grupo 10042">
            <g id="Grupo_10041" data-name="Grupo 10041">
              <g id="Grupo_10040" data-name="Grupo 10040">
                <path id="Caminho_50294" data-name="Caminho 50294" d="M362.87,267.592a14.04,14.04,0,0,1,16.866-2.782,6.641,6.641,0,0,1,2.731,2.389c1.8,3.511,4.285,16.4,1.414,22.56s-7.285,5.28-8.856,4.832-8.944-3.435-10.632-5.74-5.24-14.158-4.392-17.233A12.47,12.47,0,0,1,362.87,267.592Z" fill="#cc836d"/>
                <path id="Caminho_50295" data-name="Caminho 50295" d="M362.374,266.66a14.039,14.039,0,0,1,16.866-2.781,6.628,6.628,0,0,1,2.731,2.389c1.8,3.511,4.285,16.4,1.415,22.559s-7.285,5.28-8.856,4.833-8.944-3.436-10.632-5.74-5.241-14.158-4.392-17.233A12.465,12.465,0,0,1,362.374,266.66Z" fill="#b77158"/>
                <g id="Grupo_10037" data-name="Grupo 10037">
                  <g id="Grupo_10036" data-name="Grupo 10036">
                    <g id="Grupo_10035" data-name="Grupo 10035">
                      <path id="Caminho_50296" data-name="Caminho 50296" d="M381.837,283.717a.781.781,0,0,0,.034.621,1.176,1.176,0,0,0,.731.577,2.828,2.828,0,0,0,1.344.031A2.379,2.379,0,0,0,385,284.51a1.173,1.173,0,0,0,.465-1C385.276,281.776,382.257,282.536,381.837,283.717Z" fill="#d87b71"/>
                      <path id="Caminho_50297" data-name="Caminho 50297" d="M369.971,285.609a1.068,1.068,0,0,0,.18-.825,1.594,1.594,0,0,0-.749-1.018,3.856,3.856,0,0,0-1.748-.526,3.238,3.238,0,0,0-1.536.192,1.589,1.589,0,0,0-.97,1.142C364.771,286.91,369,287,369.971,285.609Z" fill="#cc836d"/>
                      <path id="Caminho_50298" data-name="Caminho 50298" d="M381.841,276.083c-1.074-.357-2.233-.518-2.153.282a1.164,1.164,0,0,0,.425.68,4.713,4.713,0,0,0,2.366.98,2.58,2.58,0,0,0,.825.049c.744-.119.8-.747.207-1.223A6.969,6.969,0,0,0,381.841,276.083Z" fill="#444"/>
                      <path id="Caminho_50299" data-name="Caminho 50299" d="M369.6,277.58c1.021-.49,1.965-1.18,1.352-1.7a1.166,1.166,0,0,0-.778-.193,4.7,4.7,0,0,0-2.383.94,2.565,2.565,0,0,0-.626.538c-.453.6-.058,1.094.7,1.023A7,7,0,0,0,369.6,277.58Z" fill="#444"/>
                    </g>
                    <path id="Caminho_50300" data-name="Caminho 50300" d="M375.041,281.7c-.262.314.241.7.5.387a.946.946,0,0,1,1.574.441c.194.668-.634,1.143-1.2,1.09-.407-.038-.5.591-.091.629,1.021.1,2.319-.835,1.875-1.978A1.583,1.583,0,0,0,375.041,281.7Z" fill="#8e503d"/>
                  </g>
                </g>
                <path id="Caminho_50301" data-name="Caminho 50301" d="M356.739,278.9a26.767,26.767,0,0,0,2.024,4.8l.222-.7a2.158,2.158,0,0,1,3.547-.794,5.543,5.543,0,0,1,.839,1.079c.087-1.46,1.207-4.175,1.141-5.6l-.528-5.7a7.73,7.73,0,0,0,4.671,1.233,3.366,3.366,0,0,1-.854-2.431c.478.717,1.2,1.866,2.025,2.076a13.453,13.453,0,0,0,5.023.358,4.073,4.073,0,0,1-2.085-2.761,13.906,13.906,0,0,0,9.949,3.207,13.47,13.47,0,0,0,9.213-4.678c-.1-.037-.2-.081-.294-.125-3.369-1.439-5.967-4.111-8.816-6.362-.191-.146-.381-.291-.579-.437a6.726,6.726,0,0,0,1.945-2.186c-4.371-1.744-8.963-3.52-13.669-3.15a16.593,16.593,0,0,0-13.656,10.1A17.817,17.817,0,0,0,356.739,278.9Z" fill="#1d1e1e"/>
                <path id="Caminho_50302" data-name="Caminho 50302" d="M356.739,278.9a14.148,14.148,0,0,0,3.922-3.857c.346,1.1.692,2.194,1.045,3.3a22.7,22.7,0,0,0,1.108-11.171,5.669,5.669,0,0,0,4.677,2.346c-.159-1.184-.31-2.374-.468-3.565a7.063,7.063,0,0,0,5.258,3.217,7.865,7.865,0,0,1-.467-3.29,22.033,22.033,0,0,0,19.818,2.983A18.53,18.53,0,0,1,388,266.73h-.008c-1.788-1.321-3.436-2.854-5.177-4.229-.191-.146-.381-.291-.579-.437a6.726,6.726,0,0,0,1.945-2.186c-4.371-1.744-8.963-3.52-13.669-3.15a16.593,16.593,0,0,0-13.656,10.1,14.756,14.756,0,0,0-.992,3.831A19.845,19.845,0,0,0,356.739,278.9Z" fill="#444"/>
                <path id="Caminho_50303" data-name="Caminho 50303" d="M355.865,270.657a14,14,0,0,0,3.382-3.438c0,1.46.005,2.921,0,4.388a27.473,27.473,0,0,0,4.025-9.6,8.657,8.657,0,0,0,3.431,3.1c.151-1.621.3-3.235.446-4.857a7.173,7.173,0,0,0,4.966,3.612c.029-.995.057-1.983.086-2.978a14.138,14.138,0,0,0,15.788,5.842c-1.788-1.321-3.436-2.854-5.177-4.229-.191-.146-.381-.291-.579-.437a6.726,6.726,0,0,0,1.945-2.186c-4.371-1.744-8.963-3.52-13.669-3.15a16.593,16.593,0,0,0-13.656,10.1A14.756,14.756,0,0,0,355.865,270.657Z" fill="#595959"/>
                <g id="Grupo_10039" data-name="Grupo 10039">
                  <path id="Caminho_50304" data-name="Caminho 50304" d="M363.664,281.787c-.374-.182-2.25-2.67-3.585-1.169s-1.7,3.989-.458,5.393c1.137,1.281,2.723,2.665,4.668,2.18Z" fill="#b77158"/>
                  <path id="Caminho_50305" data-name="Caminho 50305" d="M360.111,282.52a1.893,1.893,0,0,0,.078,1c.443,1.391,1.755,2.447,3.011,3.427a3.67,3.67,0,0,1-.449-2.177c.025-.259.076-.516.078-.776C362.833,282.955,360.575,280.556,360.111,282.52Z" fill="#cc836d"/>
                  <g id="Grupo_10038" data-name="Grupo 10038">
                    <path id="Caminho_50306" data-name="Caminho 50306" d="M363.83,287.345l-.071-.043c-.046-.029-.119-.067-.2-.127a2.907,2.907,0,0,1-.62-.59,2.761,2.761,0,0,1-.513-1.1,2.454,2.454,0,0,1,.151-1.464,1.475,1.475,0,0,1,.09-.183l.025-.044,0-.006v0h0s0,0,0-.007l-.021-.04-.043-.079c-.029-.052-.057-.1-.087-.155a6.6,6.6,0,0,0-.38-.572c-.133-.177-.269-.34-.4-.489a3.8,3.8,0,0,0-.4-.39.856.856,0,0,0-.406-.189.61.61,0,0,0-.344.063.339.339,0,0,0-.153.149.326.326,0,0,0-.022.07.325.325,0,0,1,0-.075.333.333,0,0,1,.128-.19.678.678,0,0,1,.394-.134,1.065,1.065,0,0,1,.538.161,3.5,3.5,0,0,1,.489.369,5.7,5.7,0,0,1,.483.478,4.975,4.975,0,0,1,.447.585c.035.052.068.107.1.162l.049.083.064.117.044.083c-.011.027-.028.055-.042.082l-.063.119a1.232,1.232,0,0,0-.078.159,2.586,2.586,0,0,0-.2,1.294,2.893,2.893,0,0,0,.336,1.054,3.028,3.028,0,0,0,.476.64c.066.071.128.119.165.156Z" fill="#8e503d"/>
                  </g>
                </g>
              </g>
            </g>
          </g>
        </g>
        <g id="Grupo_10044" data-name="Grupo 10044">
          <path id="Caminho_50307" data-name="Caminho 50307" d="M358.86,256.281a1.08,1.08,0,0,0-.195.863,1.041,1.041,0,0,0,.9.589,3.948,3.948,0,0,0,2.961-1.036,1.476,1.476,0,0,0,.687-1.342c-.137-.584-.85-.822-1.449-.809A3.448,3.448,0,0,0,358.86,256.281Z" fill="#932f49"/>
          <path id="Caminho_50308" data-name="Caminho 50308" d="M383.108,259.356s-22.528,12.419-27.569,14.56c0,0-2.235-10.792,3.573-15.863a38.679,38.679,0,0,1,3.408-2.111c3.3-1.793,7.27-3.2,11-2.4a18.239,18.239,0,0,1,6.766,3.352A25.122,25.122,0,0,1,383.108,259.356Z" fill="#bd4761"/>
          <path id="Caminho_50309" data-name="Caminho 50309" d="M355.537,273.917S394.685,264.7,394.4,262.18s-11.288-2.823-11.288-2.823Z" fill="#932f49"/>
          <path id="Caminho_50310" data-name="Caminho 50310" d="M380.283,256.9a14.108,14.108,0,0,1-2.995,3.062c-3.5,2.837-7.6,5.368-12.1,5.408a5.025,5.025,0,0,1-2.035-.323,3.912,3.912,0,0,1-2.125-2.724,6.954,6.954,0,0,1,.226-3.537,11.625,11.625,0,0,1,1.268-2.843c3.3-1.793,7.27-3.2,11-2.4A18.239,18.239,0,0,1,380.283,256.9Z" fill="#932f49"/>
        </g>
        <path id="Caminho_50311" data-name="Caminho 50311" d="M374.924,298.963s6.9,1.62,8.6,3.569,9.38,14.935,9.38,14.935l-7.787,5.009Z" fill="#526995"/>
        <path id="Caminho_50312" data-name="Caminho 50312" d="M358.035,347.208c-.424-5.085.175-19.605.256-26.354.12-9.741,1.3-19.063,5.07-21.735.334-.236,1.209-.774,2.128-1.266-.446-1.38-.152-2.64,1.629-2.818a24.1,24.1,0,0,1,7.463.856c1.526.564,1.8,1.4,1.982,2.846.02.043.036.087.054.131a15.92,15.92,0,0,1,1.628.893l0,.005a.071.071,0,0,0,.018.012,33.81,33.81,0,0,1,3.451,3.22,15.853,15.853,0,0,1,1.216,3.593c1.644,6.565,3.331,19.432,4.424,28.724.182,1.556.971,9.337,1.117,10.645Z" fill="#526995"/>
        <path id="Caminho_50313" data-name="Caminho 50313" d="M382.156,304.93a46.026,46.026,0,0,1,1.521,5.136c.194-.736.524-1.47.751-2.155a.094.094,0,0,1,.181.05,12.285,12.285,0,0,1-.672,3.16l-.007.009c.237,1.022.461,2.045.685,3.056a65.494,65.494,0,0,1,1.51,8.723c.02.249-.376.3-.434.058-.726-2.964-1.209-5.993-1.888-8.971s-1.618-5.91-2.267-8.895A.322.322,0,0,1,382.156,304.93Z" fill="#3d557a"/>
        <path id="Caminho_50314" data-name="Caminho 50314" d="M375.7,300.215c-.225.06-.453.111-.681.158a2.959,2.959,0,0,0-.922-2.991c-.147-.088-.273.081-.215.215a9.781,9.781,0,0,1,.7,1.383,3.757,3.757,0,0,1,.066,1.461,12.415,12.415,0,0,1-2.015.192c.568-.917-.1-2.663-.826-3.214-.116-.088-.246.057-.224.172.108.552.538.991.693,1.542a2.527,2.527,0,0,1-.1,1.5,11.652,11.652,0,0,1-1.693-.167c-.066-.012-.131-.027-.2-.04a4.851,4.851,0,0,1-.221-1.414c.018-.473.235-.915.229-1.378a.151.151,0,0,0-.254-.106,2.886,2.886,0,0,0-.206,2.8,12.425,12.425,0,0,1-1.53-.464c-.089-.033-.176-.076-.264-.114a7.185,7.185,0,0,1-.014-1.633c.112-.562.455-1.022.583-1.565.031-.128-.114-.264-.236-.182a3.238,3.238,0,0,0-.819,3.159,9.025,9.025,0,0,0-1.455-.628.083.083,0,0,0-.079.138c1.055,1.182,3.184,1.694,4.683,1.925a12.258,12.258,0,0,0,5.12-.3A.233.233,0,0,0,375.7,300.215Z" fill="#3d557a"/>
        <path id="Caminho_50315" data-name="Caminho 50315" d="M365.489,297.853s-7.791.7-9.646,3.955-6.37,19.66-6.37,19.66h10.6l3.7-16.635Z" fill="#526995"/>
        <path id="Caminho_50316" data-name="Caminho 50316" d="M367.553,316.837l.709,28.073h32.567l.566-28.242Z" fill="#b5966e"/>
        <g id="Grupo_10050" data-name="Grupo 10050">
          <path id="Caminho_50317" data-name="Caminho 50317" d="M351.439,321.467c.582,2.128,1.366,4.843,2.171,7.2.955,2.813,1.944,5.117,2.646,5.293,1.73.436,13.942,2.9,15.959,3.3v0l.051.009.232.047,0-.013.056-.171.389-1.173.124-.373.6-1.811.133-.394.214-.651h0l-.017,0H374c0-.005-.008-.005-.017-.009-.073-.03-.248-.09-.432-.175a.567.567,0,0,0-.06-.026l-.189-.077-13.578-5.46c-.283-1.443-.732-3.49-1.19-5.519Z" fill="#b77158"/>
          <path id="Caminho_50318" data-name="Caminho 50318" d="M356.568,321.467l2.441,7.742c.613.406,13.035,4.149,14.165,4.487l0,0,.069.017.008,0,.553-.334.214-.651h0l-.017,0H374c0-.005-.008-.005-.017-.009-.073-.03-.248-.09-.432-.175a.567.567,0,0,0-.06-.026l-.189-.077-13.578-5.46c-.283-1.443-.732-3.49-1.19-5.519Z" fill="#cc836d"/>
          <g id="Grupo_10049" data-name="Grupo 10049">
            <g id="Grupo_10048" data-name="Grupo 10048">
              <path id="Caminho_50319" data-name="Caminho 50319" d="M387.909,335.544c.092-.556-8.371-3.822-8.371-3.822a6.427,6.427,0,0,0,3.285-2.687l.02-.034a.37.37,0,0,0,.047-.358.341.341,0,0,0-.136-.116,1.8,1.8,0,0,0-1.494-.006,13.676,13.676,0,0,0-1.358.721,7.611,7.611,0,0,1-2.841.657c-1.654.169-3.04,2.839-3.04,2.839s-.236-.045-.561-.1l-1.173,4.435,1.952.5.823.986c.682.626,9.059,2.939,9.365,2.444a3.709,3.709,0,0,0,.23-.439c.106-.236.189-.465.244-.618.039-.114.059-.184.059-.184a5.758,5.758,0,0,0,.5-.481,3.2,3.2,0,0,0,.42-.522.643.643,0,0,0,.134-.518,3.917,3.917,0,0,0-1.122-.828c-1.525-.926-4.037-2.241-3.852-2.34.26-.135,6.357,1.3,6.357,1.3a1.216,1.216,0,0,0,.309-.322A1.266,1.266,0,0,0,387.909,335.544Z" fill="#b77158"/>
              <g id="Grupo_10047" data-name="Grupo 10047">
                <g id="Grupo_10045" data-name="Grupo 10045">
                  <path id="Caminho_50320" data-name="Caminho 50320" d="M385.465,339.279c-.153-.058-.307-.119-.462-.185a13.945,13.945,0,0,1-2.214-1.2c-.5-.336-.81-.583-.845-.613.044.012.421.121.991.314.61.206,1.438.5,2.327.882.215.092.422.184.622.274A3.325,3.325,0,0,1,385.465,339.279Z" fill="#8e503d"/>
                </g>
                <g id="Grupo_10046" data-name="Grupo 10046">
                  <path id="Caminho_50321" data-name="Caminho 50321" d="M384.656,340.56a14.631,14.631,0,0,1-2.577-1.347,14.854,14.854,0,0,1,2.822.731C384.847,340.1,384.762,340.326,384.656,340.56Z" fill="#8e503d"/>
                </g>
              </g>
              <path id="Caminho_50322" data-name="Caminho 50322" d="M373.176,333.7c.025.005.055.013.081.017a3.242,3.242,0,0,0,.42.06,1.105,1.105,0,0,0,.338-.043,1.468,1.468,0,0,0,.689-.6,8.111,8.111,0,0,1,2.017-2.209c1.011-.621,2.274-.643,3.383-1.066a8.118,8.118,0,0,1,2.419-.87c.1,0,.21,0,.321,0a.369.369,0,0,0,.047-.355.4.4,0,0,0-.136-.116,1.79,1.79,0,0,0-1.495,0,13.736,13.736,0,0,0-1.357.719,7.647,7.647,0,0,1-2.839.66c-1.657.167-3.045,2.834-3.045,2.834s-.222-.077-.471-.188l-.06-.026-.188-.077Z" fill="#cc836d"/>
            </g>
          </g>
        </g>
        <path id="Caminho_50323" data-name="Caminho 50323" d="M361.881,312.027c.594-3.378,2.315-8.166-.837-10.724-.33-.267.111-.846.458-.593,2.466,1.8,2.327,4.761,1.864,7.5-.74,4.374-1.259,9.014-2.539,13.263-.07.234-.456.2-.44-.059A83.951,83.951,0,0,1,361.881,312.027Z" fill="#3d557a"/>
        <rect id="Retângulo_7494" data-name="Retângulo 7494" width="36.849" height="4.069" transform="translate(366.129 313.143)" fill="#b5966e"/>
        <rect id="Retângulo_7495" data-name="Retângulo 7495" width="33.792" height="1.562" transform="translate(367.602 317.212)" fill="#a0815f"/>
      </g>
      <path id="Caminho_50324" data-name="Caminho 50324" d="M397.776,335.191c.353-.515,3.491-.311,2.534-.369s-4.266-1.771-4.064-2.444,5.558-.411,5.558-.411-4.1-1.154-3.452-2.37c.212-.4.961-.568,1.869-.621-.744-.7-1.217-1.4-.607-1.719,1.437-.764,5.033,2.009,5.033,2.009,3.82,3.642-3.319,8.02-3.319,8.02S397.424,335.706,397.776,335.191Z" fill="#b77158"/>
      <g id="Grupo_10054" data-name="Grupo 10054">
        <g id="Grupo_10052" data-name="Grupo 10052">
          <path id="Caminho_50325" data-name="Caminho 50325" d="M369.064,280.572c0,1.256.634,2.274,1.416,2.274s1.416-1.018,1.416-2.274-.634-2.274-1.416-2.274S369.064,279.316,369.064,280.572Z" fill="#1d1e1e"/>
          <path id="Caminho_50326" data-name="Caminho 50326" d="M367.711,279.3a2.911,2.911,0,0,0,3.125,1.265,2.915,2.915,0,0,0-3.125-1.265Z" fill="#ffefdf"/>
        </g>
        <g id="Grupo_10053" data-name="Grupo 10053">
          <path id="Caminho_50327" data-name="Caminho 50327" d="M382.866,280.394c0,.946-.477,1.713-1.067,1.713s-1.067-.767-1.067-1.713.478-1.714,1.067-1.714S382.866,279.447,382.866,280.394Z" fill="#1d1e1e"/>
          <path id="Caminho_50328" data-name="Caminho 50328" d="M383.783,279.562a2.358,2.358,0,0,1-2.224.9,2.358,2.358,0,0,1,2.224-.9Z" fill="#ffefdf"/>
        </g>
      </g>
      <path id="Caminho_50329" data-name="Caminho 50329" d="M378.5,286.453a5.39,5.39,0,0,1-1.89,1.283,6.693,6.693,0,0,1-1.316.4,5.767,5.767,0,0,1-1.522.083l.029,0a4.591,4.591,0,0,1-1.771-.425,1.842,1.842,0,0,1-.974-.944,4.407,4.407,0,0,0,1.307.63,4.724,4.724,0,0,0,.729.16,6.815,6.815,0,0,0,.76.061h.03a6.727,6.727,0,0,0,2.349-.361A21.658,21.658,0,0,0,378.5,286.453Z" fill="#8e503d"/>
    </g>
  </g>
</svg>
