<svg id="img.1-slide-18" xmlns="http://www.w3.org/2000/svg" width="67.51" height="101.359" viewBox="0 0 67.51 101.359">
  <g id="Grupo_8790" data-name="Grupo 8790" transform="translate(13.597 12.6)">
    <g id="Grupo_8786" data-name="Grupo 8786" transform="translate(16.651 45.22)">
      <path id="Caminho_48557" data-name="Caminho 48557" d="M101.034,151.169c9.8,0,17.774-9.772,17.774-21.77s-7.968-21.77-17.774-21.77S83.26,117.4,83.26,129.4,91.228,151.169,101.034,151.169Zm0-41.258c8.535,0,15.482,8.74,15.482,19.477s-6.946,19.477-15.482,19.477-15.482-8.74-15.482-19.477S92.5,109.911,101.034,109.911Z" transform="translate(-83.26 -107.63)" fill="#263237"/>
      <g id="Grupo_8784" data-name="Grupo 8784" transform="translate(2.066 2.054)">
        <path id="Caminho_48558" data-name="Caminho 48558" d="M87.51,128.311a6.764,6.764,0,0,0,.159-1.1h8.8a21.477,21.477,0,0,1-.772,5.346Z" transform="translate(-67.806 -107.041)" fill="none"/>
        <path id="Caminho_48559" data-name="Caminho 48559" d="M88.44,129.913a6.227,6.227,0,0,0,.477-.953L97.1,133.2a18.328,18.328,0,0,1-2.361,4.767Z" transform="translate(-69.497 -106.805)" fill="none"/>
        <path id="Caminho_48560" data-name="Caminho 48560" d="M94.771,143.143V131.554a2.9,2.9,0,0,0,.76-.2l3.507,10.624a10.2,10.2,0,0,1-4.279,1.158Z" transform="translate(-78.609 -106.482)" fill="none"/>
        <path id="Caminho_48561" data-name="Caminho 48561" d="M87.7,127.063a5.585,5.585,0,0,0-.182-1.169l8.127-4.4a21.516,21.516,0,0,1,.84,5.573h-8.8Z" transform="translate(-67.839 -107.813)" fill="none"/>
        <path id="Caminho_48562" data-name="Caminho 48562" d="M104.131,116.71l6.3,8.059a6.229,6.229,0,0,0-.477.953l-8.183-4.245a18.328,18.328,0,0,1,2.361-4.767Z" transform="translate(-97.956 -108.458)" fill="none"/>
        <path id="Caminho_48563" data-name="Caminho 48563" d="M97.092,121.25l-8.138,4.4a5.413,5.413,0,0,0-.454-.885l6.3-8.059a17.921,17.921,0,0,1,2.281,4.54Z" transform="translate(-69.557 -108.458)" fill="none"/>
        <path id="Caminho_48564" data-name="Caminho 48564" d="M102.714,131.37a3.768,3.768,0,0,0,.7.182V143.14a10.443,10.443,0,0,1-4.1-1.067Z" transform="translate(-88.163 -106.479)" fill="none"/>
        <path id="Caminho_48565" data-name="Caminho 48565" d="M103.578,111.87v11.588a2.9,2.9,0,0,0-.76.2L99.31,113.039a10.2,10.2,0,0,1,4.279-1.158Z" transform="translate(-88.323 -109.112)" fill="none"/>
        <path id="Caminho_48566" data-name="Caminho 48566" d="M95.614,123.64a3.771,3.771,0,0,0-.7-.182V111.87a10.442,10.442,0,0,1,4.1,1.067Z" transform="translate(-78.747 -109.112)" fill="none"/>
        <path id="Caminho_48567" data-name="Caminho 48567" d="M91.7,124.491a3.74,3.74,0,0,0-.681-.59L94.4,113.22a13.337,13.337,0,0,1,3.6,3.212L91.69,124.5Z" transform="translate(-73.325 -108.93)" fill="none"/>
        <path id="Caminho_48568" data-name="Caminho 48568" d="M101.77,133.424l8.138-4.4a5.408,5.408,0,0,0,.454.885l-6.3,8.059a17.921,17.921,0,0,1-2.281-4.54Z" transform="translate(-97.888 -106.796)" fill="none"/>
        <path id="Caminho_48569" data-name="Caminho 48569" d="M91.01,131.016a3.594,3.594,0,0,0,.624-.556l6.311,8.07a13.367,13.367,0,0,1-3.428,3.1L91.01,131Z" transform="translate(-73.258 -106.602)" fill="none"/>
        <path id="Caminho_48570" data-name="Caminho 48570" d="M106.959,130.461a3.74,3.74,0,0,0,.681.59l-3.382,10.68a13.337,13.337,0,0,1-3.6-3.212l6.311-8.07Z" transform="translate(-93.907 -106.603)" fill="none"/>
        <path id="Caminho_48571" data-name="Caminho 48571" d="M107.645,123.922a3.6,3.6,0,0,0-.624.556l-6.311-8.07a13.366,13.366,0,0,1,3.428-3.1l3.507,10.624Z" transform="translate(-93.968 -108.918)" fill="none"/>
        <path id="Caminho_48572" data-name="Caminho 48572" d="M111.2,127.21a6.444,6.444,0,0,0,.182,1.169l-8.127,4.4a21.517,21.517,0,0,1-.84-5.573h8.8Z" transform="translate(-99.651 -107.041)" fill="none"/>
        <path id="Caminho_48573" data-name="Caminho 48573" d="M111.4,125.935a6.767,6.767,0,0,0-.159,1.1h-8.8a21.476,21.476,0,0,1,.772-5.346Z" transform="translate(-99.682 -107.786)" fill="none"/>
        <path id="Caminho_48574" data-name="Caminho 48574" d="M100.789,109.44c8.66,0,15.709,8.842,15.709,19.715s-7.048,19.715-15.709,19.715S85.08,140.029,85.08,129.155,92.128,109.44,100.789,109.44Zm-3.235,16.31-6.3-8.059a18.328,18.328,0,0,0-2.361,4.767l8.183,4.245A6.227,6.227,0,0,1,97.554,125.75Zm2.781-1.964V112.2a10.464,10.464,0,0,0-4.279,1.158l3.507,10.624a3.02,3.02,0,0,1,.76-.2Zm.919,0a3.772,3.772,0,0,1,.7.182l3.394-10.7a10.251,10.251,0,0,0-4.1-1.067Zm3.235,2.849,8.138-4.4a18.3,18.3,0,0,0-2.281-4.54l-6.3,8.059a6.477,6.477,0,0,1,.454.885Zm.284.885a7.844,7.844,0,0,1,.182,1.169h8.8a21.592,21.592,0,0,0-.84-5.573l-8.127,4.4Zm.182,2.088a6.953,6.953,0,0,1-.159,1.1l8.183,4.245a21.477,21.477,0,0,0,.772-5.346Zm-.443,1.986a6.23,6.23,0,0,1-.477.953l6.3,8.059a18.327,18.327,0,0,0,2.361-4.767l-8.183-4.245Zm-3.257,2.917V146.1a10.463,10.463,0,0,0,4.279-1.158l-3.507-10.624a3.02,3.02,0,0,1-.76.2Zm-.919,0a3.77,3.77,0,0,1-.7-.182l-3.394,10.7a10.252,10.252,0,0,0,4.1,1.067ZM97.1,131.664l-8.138,4.4a18.3,18.3,0,0,0,2.281,4.54l6.3-8.059a6.477,6.477,0,0,1-.454-.885Zm-.284-.885a7.843,7.843,0,0,1-.182-1.169h-8.8a21.591,21.591,0,0,0,.84,5.573l8.127-4.4Zm-.182-2.088a6.953,6.953,0,0,1,.159-1.1l-8.183-4.245a21.476,21.476,0,0,0-.772,5.346Zm-4.812-11.759L98.133,125a4.763,4.763,0,0,1,.624-.556L95.25,113.821a13.772,13.772,0,0,0-3.428,3.1Zm14.347-3.212-3.382,10.68a4.7,4.7,0,0,1,.681.59l6.311-8.07a13.53,13.53,0,0,0-3.6-3.212Zm3.6,27.649-6.311-8.07a4.765,4.765,0,0,1-.624.556l3.507,10.624a13.771,13.771,0,0,0,3.428-3.1ZM95.42,144.58,98.8,133.9a4.7,4.7,0,0,1-.681-.59l-6.311,8.07a13.529,13.529,0,0,0,3.6,3.212Z" transform="translate(-85.08 -109.44)" fill="#007cff"/>
      </g>
      <g id="Grupo_8785" data-name="Grupo 8785" transform="translate(2.066 2.054)" opacity="0.2" style="isolation: isolate">
        <path id="Caminho_48575" data-name="Caminho 48575" d="M100.789,109.44c8.66,0,15.709,8.842,15.709,19.715s-7.048,19.715-15.709,19.715S85.08,140.029,85.08,129.155,92.128,109.44,100.789,109.44Zm-3.235,16.31-6.3-8.059a18.328,18.328,0,0,0-2.361,4.767l8.183,4.245A6.227,6.227,0,0,1,97.554,125.75Zm2.781-1.964V112.2a10.464,10.464,0,0,0-4.279,1.158l3.507,10.624a3.02,3.02,0,0,1,.76-.2Zm.919,0a3.772,3.772,0,0,1,.7.182l3.394-10.7a10.251,10.251,0,0,0-4.1-1.067Zm3.235,2.849,8.138-4.4a18.3,18.3,0,0,0-2.281-4.54l-6.3,8.059a6.477,6.477,0,0,1,.454.885Zm.284.885a7.844,7.844,0,0,1,.182,1.169h8.8a21.592,21.592,0,0,0-.84-5.573l-8.127,4.4Zm.182,2.088a6.953,6.953,0,0,1-.159,1.1l8.183,4.245a21.477,21.477,0,0,0,.772-5.346Zm-.443,1.986a6.23,6.23,0,0,1-.477.953l6.3,8.059a18.327,18.327,0,0,0,2.361-4.767l-8.183-4.245Zm-3.257,2.917V146.1a10.463,10.463,0,0,0,4.279-1.158l-3.507-10.624a3.02,3.02,0,0,1-.76.2Zm-.919,0a3.77,3.77,0,0,1-.7-.182l-3.394,10.7a10.252,10.252,0,0,0,4.1,1.067ZM97.1,131.664l-8.138,4.4a18.3,18.3,0,0,0,2.281,4.54l6.3-8.059a6.477,6.477,0,0,1-.454-.885Zm-.284-.885a7.843,7.843,0,0,1-.182-1.169h-8.8a21.591,21.591,0,0,0,.84,5.573l8.127-4.4Zm-.182-2.088a6.953,6.953,0,0,1,.159-1.1l-8.183-4.245a21.476,21.476,0,0,0-.772,5.346Zm-4.812-11.759L98.133,125a4.763,4.763,0,0,1,.624-.556L95.25,113.821a13.772,13.772,0,0,0-3.428,3.1Zm14.347-3.212-3.382,10.68a4.7,4.7,0,0,1,.681.59l6.311-8.07a13.53,13.53,0,0,0-3.6-3.212Zm3.6,27.649-6.311-8.07a4.765,4.765,0,0,1-.624.556l3.507,10.624a13.771,13.771,0,0,0,3.428-3.1ZM95.42,144.58,98.8,133.9a4.7,4.7,0,0,1-.681-.59l-6.311,8.07a13.529,13.529,0,0,0,3.6,3.212Z" transform="translate(-85.08 -109.44)"/>
      </g>
    </g>
    <g id="Grupo_8789" data-name="Grupo 8789" transform="translate(0 5.733)">
      <path id="Caminho_48576" data-name="Caminho 48576" d="M84.119,107.87h17.82a3.8,3.8,0,0,1,3.791,3.791v29.6a1.7,1.7,0,0,0,1.691,1.691h5.562a.919.919,0,0,1,0,1.839h-5.562a3.534,3.534,0,0,1-3.53-3.53V130.286H84.119a.916.916,0,0,1-.919-.919V108.8a.916.916,0,0,1,.919-.919Zm.919,20.566H103.9V111.65a1.952,1.952,0,0,0-1.952-1.952H85.039Z" transform="translate(-61.635 -68.111)" fill="#263237"/>
      <path id="Caminho_48577" data-name="Caminho 48577" d="M84.119,107.87h17.82a3.8,3.8,0,0,1,3.791,3.791v29.6a1.7,1.7,0,0,0,1.691,1.691h5.562a.919.919,0,0,1,0,1.839h-5.562a3.534,3.534,0,0,1-3.53-3.53V130.286H84.119a.916.916,0,0,1-.919-.919V108.8a.916.916,0,0,1,.919-.919Zm.919,20.566H103.9V111.65a1.952,1.952,0,0,0-1.952-1.952H85.039Z" transform="translate(-61.635 -68.111)" fill="#fff" opacity="0.3"/>
      <g id="Grupo_8787" data-name="Grupo 8787" transform="translate(18.047)">
        <path id="Caminho_48578" data-name="Caminho 48578" d="M91.625,72.84v29.522h21.52a3.449,3.449,0,0,1,3.45,3.45v15.323H93.475a4.161,4.161,0,0,1-4.165-4.165V72.851h2.327Z" transform="translate(-89.31 -72.84)" fill="#263237"/>
        <path id="Caminho_48579" data-name="Caminho 48579" d="M91.625,72.84v29.522h21.52a3.449,3.449,0,0,1,3.45,3.45v15.323H93.475a4.161,4.161,0,0,1-4.165-4.165V72.851h2.327Z" transform="translate(-89.31 -72.84)" fill="#fff" opacity="0.3"/>
      </g>
      <path id="Caminho_48580" data-name="Caminho 48580" d="M120.676,108.63H88.93v6.708h38.454A6.714,6.714,0,0,0,120.676,108.63Z" transform="translate(-81.621 -68.008)" fill="#263237"/>
      <g id="Grupo_8788" data-name="Grupo 8788" transform="translate(2.904 46.377)">
        <path id="Caminho_48581" data-name="Caminho 48581" d="M88.985,113.7h41.973a.959.959,0,0,1,.953.953h0a.959.959,0,0,1-.953.953H88.985a.965.965,0,0,1-.953-.9h0a.958.958,0,0,1,.953-1.01Z" transform="translate(-88.03 -113.7)" fill="#263237"/>
        <path id="Caminho_48582" data-name="Caminho 48582" d="M88.985,113.7h41.973a.959.959,0,0,1,.953.953h0a.959.959,0,0,1-.953.953H88.985a.965.965,0,0,1-.953-.9h0a.958.958,0,0,1,.953-1.01Z" transform="translate(-88.03 -113.7)" fill="#fff" opacity="0.3"/>
      </g>
      <path id="Caminho_48583" data-name="Caminho 48583" d="M131.575,73.61H112.03v30.52a14.99,14.99,0,0,0,14.982,14.982h4.563V73.61Z" transform="translate(-112.03 -72.736)" fill="#263237"/>
      <rect id="Retângulo_7407" data-name="Retângulo 7407" width="13.575" height="2.917" rx="1.28" transform="translate(39.896 73.299)" fill="#263237"/>
      <rect id="Retângulo_7408" data-name="Retângulo 7408" width="13.575" height="2.917" rx="1.28" transform="translate(39.896 73.299)" fill="#fff" opacity="0.2"/>
      <path id="Caminho_48584" data-name="Caminho 48584" d="M90.965,127.89l17.74-6.311-17.74-6.311a.686.686,0,0,1,.454-1.294l19.329,6.878,19.329-6.878a.686.686,0,0,1,.454,1.294l-17.74,6.311,17.74,6.311a.683.683,0,0,1-.227,1.328.508.508,0,0,1-.227-.045l-19.329-6.878-19.329,6.878a.893.893,0,0,1-.227.045.683.683,0,0,1-.227-1.328Z" transform="translate(-87.015 -67.292)" fill="#263237"/>
      <path id="Caminho_48585" data-name="Caminho 48585" d="M90.965,127.89l17.74-6.311-17.74-6.311a.686.686,0,0,1,.454-1.294l19.329,6.878,19.329-6.878a.686.686,0,0,1,.454,1.294l-17.74,6.311,17.74,6.311a.683.683,0,0,1-.227,1.328.508.508,0,0,1-.227-.045l-19.329-6.878-19.329,6.878a.893.893,0,0,1-.227.045.683.683,0,0,1-.227-1.328Z" transform="translate(-87.015 -67.292)" fill="#fff" opacity="0.3"/>
    </g>
    <path id="Caminho_48586" data-name="Caminho 48586" d="M119.876,77.88a.7.7,0,0,0,.692-.692V71.922a3.911,3.911,0,0,0-3.734-3.916L112.4,67.79a.687.687,0,1,0-.057,1.373l4.438.216a2.546,2.546,0,0,1,2.429,2.542v5.266a.7.7,0,0,0,.692.692Z" transform="translate(-100.626 -67.789)" fill="#1a2e35"/>
  </g>
  <g id="Grupo_8804" data-name="Grupo 8804" transform="translate(13.742)">
    <g id="Grupo_8791" data-name="Grupo 8791" transform="translate(37.197 80.1)">
      <path id="Caminho_48587" data-name="Caminho 48587" d="M95.024,136.976l-4.4-1.385.568-4.347.522-3.984,5.414,1.067L96.011,132.9Z" transform="translate(-90.62 -127.26)" fill="#fcb373"/>
      <path id="Caminho_48588" data-name="Caminho 48588" d="M95.454,132.986l-4.824-1.668.533-4.018,5.414,1.044Z" transform="translate(-90.085 -127.255)" opacity="0.2" style="isolation: isolate"/>
    </g>
    <path id="Caminho_48589" data-name="Caminho 48589" d="M85.609,133.725c.023-.341,5.38.114,5.38.114a17.878,17.878,0,0,0,6.39,3.45c3.189.7,1.339,2.145-2.247,2.02s-6.322-.227-8.864-.318-.9-1.725-.658-5.266Z" transform="translate(-48.786 -46.304)" fill="#263237"/>
    <path id="Caminho_48590" data-name="Caminho 48590" d="M119.042,102.609c-3.2-5.5-20.237-6.538-31.531-7.309l-3.848,9.943s16.844-.931,21.7,4.551c3.87,4.37,1.237,23.96,1.237,23.96l7.241.511s10.862-21.906,5.187-31.667Z" transform="translate(-69.076 -51.475)" fill="#263237"/>
    <path id="Caminho_48591" data-name="Caminho 48591" d="M119.042,102.609c-3.2-5.5-20.237-6.538-31.531-7.309l-3.848,9.943s16.844-.931,21.7,4.551c3.87,4.37,1.237,23.96,1.237,23.96l7.241.511s10.862-21.906,5.187-31.667Z" transform="translate(-69.076 -51.475)" opacity="0.2" style="isolation: isolate"/>
    <g id="Grupo_8792" data-name="Grupo 8792" transform="translate(28.027 80.1)">
      <path id="Caminho_48592" data-name="Caminho 48592" d="M103.1,136.976l-4.4-1.385.568-4.347.533-3.984,5.4,1.067-1.1,4.574Z" transform="translate(-98.7 -127.26)" fill="#fcb373"/>
      <path id="Caminho_48593" data-name="Caminho 48593" d="M103.524,132.986,98.7,131.318l.545-4.018,5.414,1.044Z" transform="translate(-98.155 -127.255)" opacity="0.2" style="isolation: isolate"/>
    </g>
    <g id="Grupo_8793" data-name="Grupo 8793" transform="translate(7.62 15.05)">
      <path id="Caminho_48594" data-name="Caminho 48594" d="M122.758,70.427c-2.293-1.1-8.388-.148-9.863,1.249s4.529,5.5,7.752,4.915S124.54,71.278,122.758,70.427Z" transform="translate(-112.668 -69.947)" fill="#007cff"/>
      <path id="Caminho_48595" data-name="Caminho 48595" d="M122.758,70.427c-2.293-1.1-8.388-.148-9.863,1.249s4.529,5.5,7.752,4.915S124.54,71.278,122.758,70.427Z" transform="translate(-112.668 -69.947)" opacity="0.2" style="isolation: isolate"/>
    </g>
    <path id="Caminho_48596" data-name="Caminho 48596" d="M115.534,96.384s-4-7.718-4.2-8.32c-1.067-3.11-20.373-.306-20.373-.306s-5.323,16.174,1.305,20.816c5.766,4.041,19.715,2.213,22.076,2.951,2.191.67,3.257,3.03-.068,24.936l7.185.272s10.522-26.151,10.4-30.838.7-6.855-16.333-9.511Z" transform="translate(-86.247 -52.65)" fill="#263237"/>
    <g id="Grupo_8794" data-name="Grupo 8794" transform="translate(3 16.76)">
      <path id="Caminho_48597" data-name="Caminho 48597" d="M129.578,97.29s-5.63-19.829-7.616-24.948c-.738-1.9-18.433-.057-18.433-.057V96.279s13.234,4.688,17.1,2.735c1.226-.613,2.542-4.869,2.542-4.869s2.474,4.608,4.007,4.654C128.058,98.822,129.578,97.29,129.578,97.29Z" transform="translate(-103.53 -71.451)" fill="#007cff"/>
      <path id="Caminho_48598" data-name="Caminho 48598" d="M103.52,72.278V96.272s13.234,4.688,17.1,2.735c1.226-.624,2.542-4.869,2.542-4.869s2.474,4.608,4.007,4.642c.874.023,2.406-1.51,2.406-1.51s-.068-.261-.216-.749c-.76-2.667-3.428-11.986-5.5-18.557-.76-2.406-1.43-4.438-1.907-5.652-.738-1.9-18.433-.057-18.433-.057Z" transform="translate(-103.52 -71.455)" fill="#fff" opacity="0.6"/>
      <ellipse id="Elipse_699" data-name="Elipse 699" cx="0.488" cy="0.488" rx="0.488" ry="0.488" transform="translate(14.71 9.449)" opacity="0.2" style="isolation: isolate"/>
      <ellipse id="Elipse_700" data-name="Elipse 700" cx="0.488" cy="0.488" rx="0.488" ry="0.488" transform="translate(16.378 14.285)" opacity="0.2" style="isolation: isolate"/>
      <ellipse id="Elipse_701" data-name="Elipse 701" cx="0.488" cy="0.488" rx="0.488" ry="0.488" transform="translate(18.251 19.665)" opacity="0.2" style="isolation: isolate"/>
      <path id="Caminho_48599" data-name="Caminho 48599" d="M110.62,81.46V94.887c14.085,4.767,18,.647,18,.647s-7.718-4.381-10.93-6.016-3.825-10.158-3.825-10.158A37.445,37.445,0,0,0,110.62,81.46Z" transform="translate(-110.62 -70.387)" opacity="0.2" style="isolation: isolate"/>
      <path id="Caminho_48600" data-name="Caminho 48600" d="M106.115,89.139a28.959,28.959,0,0,1-.624,4.96c-.113,1.124.216,3.7,4.211,1.668-.76-2.667-3.428-11.986-5.5-18.557a1.551,1.551,0,0,0-.477.306s2.44,8.161,2.383,11.623Z" transform="translate(-83.869 -70.678)" opacity="0.2" style="isolation: isolate"/>
    </g>
    <g id="Grupo_8795" data-name="Grupo 8795" transform="translate(8.255 12.408)">
      <path id="Caminho_48601" data-name="Caminho 48601" d="M113.835,72.875a8.716,8.716,0,0,0,4.222,1.907c2.032.091,3.984,3.087,3.984,3.087a23.224,23.224,0,0,0,.375-3.269,3.352,3.352,0,0,1,.306-1.056h0c.238-.726.42-1.544-.306-1.544-1.226,0-.375-2.474-.375-2.474l-6.912-1.907a9.88,9.88,0,0,1,.386,1.986c.125,1.385-.079,3.019-1.668,3.269Z" transform="translate(-113.835 -67.62)" fill="#fcb373"/>
      <path id="Caminho_48602" data-name="Caminho 48602" d="M113.866,67.62a9.881,9.881,0,0,1,.386,1.986,10.452,10.452,0,0,0,7.2,3.938c.238-.726.42-1.544-.306-1.544-1.226,0-.375-2.474-.375-2.474l-6.912-1.907Z" transform="translate(-112.584 -67.62)" opacity="0.2" style="isolation: isolate"/>
    </g>
    <g id="Grupo_8796" data-name="Grupo 8796" transform="translate(4.464 15.482)">
      <path id="Caminho_48603" data-name="Caminho 48603" d="M120.366,72.675s3.6,6.345,4.358,11.6a18.766,18.766,0,0,0-3.723,0c-1.407.227-.4-6.992-3.711-12.145l3.087.545Z" transform="translate(-115.758 -70.085)" fill="#007cff"/>
      <path id="Caminho_48604" data-name="Caminho 48604" d="M120.366,72.675s3.6,6.345,4.358,11.6a18.766,18.766,0,0,0-3.723,0c-1.407.227-.4-6.992-3.711-12.145l3.087.545Z" transform="translate(-115.758 -70.085)" opacity="0.2" style="isolation: isolate"/>
      <path id="Caminho_48605" data-name="Caminho 48605" d="M124.765,73.191c0,2.066-2.474,3.757-6.186.681s-4.7-3.791-5.618-2.713c0,0-1.249.091-1.441,1.135a9.446,9.446,0,0,1,2.974,1.85c1.18,1.18,6.163,5.527,9.387,5.164s4.029-5.028,2.179-6.935a1.883,1.883,0,0,0-2.872-1.771s1.566.227,1.566,2.588Z" transform="translate(-111.519 -70.328)" fill="#007cff"/>
      <path id="Caminho_48606" data-name="Caminho 48606" d="M121.385,82.857a13.981,13.981,0,0,1,.352,2.066c-.091.091-.284-1.964-.636-1.816s.3,1.884,0,1.816.023-1.759-.352-1.782.045,1.759-.227,1.782-.023-1.782-.363-1.782.114,1.827-.182,1.793-.057-1.884-.4-1.884.182,1.793-.148,1.884.034-1.793-.4-1.793.091,1.827-.125,1.793.125-1.884-.306-1.793.034,1.861-.216,1.793.216-1.793-.216-1.7-.272,1.839-.4,1.7-.068-1.555-.318-1.578.023,1.271-.375,1.362.375-1.873.375-1.873a9.463,9.463,0,0,1,3.893.011Z" transform="translate(-112.418 -68.667)" fill="#007cff"/>
    </g>
    <g id="Grupo_8801" data-name="Grupo 8801" transform="translate(1.413)">
      <path id="Caminho_48607" data-name="Caminho 48607" d="M115.7,59.164c3.859-.613,5.425,1.26,6.333,5.2l.068.306c2.395,2.122,1,8.013-4.472,8.013-6.8,0-8.342-12.508-1.941-13.518Z" transform="translate(-104.788 -56.369)" fill="#fcb373"/>
      <path id="Caminho_48608" data-name="Caminho 48608" d="M113.711,63.89a8.272,8.272,0,0,0,1.373,1.419,1.086,1.086,0,0,1-.953.6l-.431-2.02Z" transform="translate(-98.993 -55.715)" fill="#ec873e"/>
      <g id="Grupo_8797" data-name="Grupo 8797" transform="translate(11.538 7.357)">
        <path id="Caminho_48609" data-name="Caminho 48609" d="M117.792,64c.057.318-.068.6-.272.636s-.431-.182-.488-.5.068-.6.272-.636S117.735,63.682,117.792,64Z" transform="translate(-117.018 -63.126)" fill="#1a2e35"/>
        <path id="Caminho_48610" data-name="Caminho 48610" d="M116.97,63.567l.636-.4S117.367,63.806,116.97,63.567Z" transform="translate(-116.763 -63.17)" fill="#1a2e35"/>
      </g>
      <g id="Grupo_8798" data-name="Grupo 8798" transform="translate(15.454 6.574)">
        <path id="Caminho_48611" data-name="Caminho 48611" d="M114.342,63.31c.057.318-.068.6-.272.636s-.431-.182-.488-.5.068-.6.272-.636S114.285,62.992,114.342,63.31Z" transform="translate(-113.568 -62.436)" fill="#1a2e35"/>
        <path id="Caminho_48612" data-name="Caminho 48612" d="M113.52,62.877l.636-.4S113.917,63.116,113.52,62.877Z" transform="translate(-113.313 -62.48)" fill="#1a2e35"/>
      </g>
      <path id="Caminho_48613" data-name="Caminho 48613" d="M117.461,62.629a.194.194,0,0,0,.148-.079,1.859,1.859,0,0,1,1.441-.76.165.165,0,0,0-.011-.329h0a2.262,2.262,0,0,0-1.725.931.165.165,0,0,0,.057.227.211.211,0,0,0,.079.023Z" transform="translate(-107.191 -56.044)" fill="#1a2e35"/>
      <path id="Caminho_48614" data-name="Caminho 48614" d="M115.205,61.335a.147.147,0,0,0,.148-.1.167.167,0,0,0-.079-.216,1.941,1.941,0,0,0-1.737-.068.168.168,0,1,0,.159.3,1.69,1.69,0,0,1,1.441.079c.023,0,.045.011.068.011Z" transform="translate(-98.988 -56.135)" fill="#1a2e35"/>
      <path id="Caminho_48615" data-name="Caminho 48615" d="M113.192,63.625c.7-.613,2.032-.261,3,.113v-.113a4.368,4.368,0,0,1,1.759-3.677c0-1.544,1.192-2.213,2.5-2.622s2.452.363,4-.363a2.144,2.144,0,0,1,2.974.863c.4.726.227,1.771,1.51,1.816s.976,1.237.726,1.884-.182.465.227,1.169c.284.488-.136.795-.431.942.045.341.057.545.057.545-.034-.182-.079-.352-.125-.522-1.816-6.98-8.637-2.849-8.637-2.849.658,2.406-.647,5.857-.647,5.857a4.362,4.362,0,0,0,.806,3.848,4.922,4.922,0,0,0,.386.488,5.281,5.281,0,0,1-.67-.488c-2.747-.091-2.622-1.589-2.622-2.088a1.6,1.6,0,0,0-.306-.636,2.769,2.769,0,0,1-3.144,1.68c-2.679-.59-2.542-4.8-1.362-5.834Z" transform="translate(-112.377 -56.688)" fill="#1a2e35"/>
      <path id="Caminho_48616" data-name="Caminho 48616" d="M116.155,67.843a2.248,2.248,0,0,1-1.827-.987.36.36,0,0,1,.6-.394h0a1.721,1.721,0,0,0,.53.475,1.5,1.5,0,0,0,1.436.008.36.36,0,0,1,.3.654A2.484,2.484,0,0,1,116.155,67.843Z" transform="translate(-102.011 -55.341)" fill="#1a2e35"/>
      <path id="Caminho_48617" data-name="Caminho 48617" d="M117.164,65.642a1.769,1.769,0,0,1-.306-.028.25.25,0,0,1,.087-.492.656.656,0,0,0,.586-.1.914.914,0,0,0,.167-.684.25.25,0,0,1,.5-.07,1.392,1.392,0,0,1-.315,1.113A.987.987,0,0,1,117.164,65.642Z" transform="translate(-105.497 -55.66)" fill="#ec873e"/>
      <path id="Caminho_48618" data-name="Caminho 48618" d="M113.88,64.759a1.011,1.011,0,0,1-.428-.092,1.289,1.289,0,0,1-.633-.783.25.25,0,0,1,.483-.13.644.644,0,0,0,1.024.385.25.25,0,1,1,.216.451A1.541,1.541,0,0,1,113.88,64.759Z" transform="translate(-97.615 -55.725)" fill="#ec873e"/>
      <path id="Caminho_48619" data-name="Caminho 48619" d="M115.89,67.872a.25.25,0,0,1-.244-.306,3.316,3.316,0,0,1,2.02-2.132.25.25,0,0,1,.17.47,2.859,2.859,0,0,0-1.7,1.773A.25.25,0,0,1,115.89,67.872Z" transform="translate(-104.145 -55.475)" fill="#ec873e"/>
      <path id="Caminho_48620" data-name="Caminho 48620" d="M113.192,63.625c.7-.613,2.032-.261,3,.113v-.113a4.368,4.368,0,0,1,1.759-3.677c0-1.544,1.192-2.213,2.5-2.622s2.452.363,4-.363a2.144,2.144,0,0,1,2.974.863c.4.726.227,1.771,1.51,1.816s.976,1.237.726,1.884-.182.465.227,1.169c.284.488-.136.795-.431.942.045.341.057.545.057.545-.034-.182-.079-.352-.125-.522-1.816-6.98-8.637-2.849-8.637-2.849.658,2.406-.647,5.857-.647,5.857a4.362,4.362,0,0,0,.806,3.848,4.922,4.922,0,0,0,.386.488,5.281,5.281,0,0,1-.67-.488c-2.747-.091-2.622-1.589-2.622-2.088a1.6,1.6,0,0,0-.306-.636,2.769,2.769,0,0,1-3.144,1.68c-2.679-.59-2.542-4.8-1.362-5.834Z" transform="translate(-112.377 -56.688)" fill="#fff" opacity="0.4"/>
      <path id="Caminho_48621" data-name="Caminho 48621" d="M123.16,66.257A1.719,1.719,0,0,0,121.094,65c-1.18.318-1.362,2.86,1.714,2.985C123.251,68,123.421,67.539,123.16,66.257Z" transform="translate(-114.684 -55.574)" fill="#fcb373"/>
      <g id="Grupo_8799" data-name="Grupo 8799" transform="translate(10.099 5.416)" opacity="0.2">
        <path id="Caminho_48622" data-name="Caminho 48622" d="M117.461,62.629a.194.194,0,0,0,.148-.079,1.859,1.859,0,0,1,1.441-.76.165.165,0,0,0-.011-.329h0a2.262,2.262,0,0,0-1.725.931.165.165,0,0,0,.057.227.211.211,0,0,0,.079.023Z" transform="translate(-117.29 -61.46)" fill="#fff"/>
      </g>
      <g id="Grupo_8800" data-name="Grupo 8800" transform="translate(14.46 4.651)" opacity="0.2">
        <path id="Caminho_48623" data-name="Caminho 48623" d="M115.205,61.335a.147.147,0,0,0,.148-.1.167.167,0,0,0-.079-.216,1.941,1.941,0,0,0-1.737-.068.168.168,0,1,0,.159.3,1.69,1.69,0,0,1,1.441.079c.023,0,.045.011.068.011Z" transform="translate(-113.448 -60.786)" fill="#fff"/>
      </g>
    </g>
    <path id="Caminho_48624" data-name="Caminho 48624" d="M122.168,118.5s-.091-13.87-3.53-17.411S102.4,95.332,102.4,95.332s-11.94-1.237-16.253.942-4.393,13.5-4.393,13.5,11.588-1.283,13.132,3.9a66.858,66.858,0,0,1,2.111,10.17l25.175-5.346Z" transform="translate(-68.399 -51.518)" fill="#007cff"/>
    <path id="Caminho_48625" data-name="Caminho 48625" d="M85.609,133.725c.023-.341,5.38.114,5.38.114a17.878,17.878,0,0,0,6.39,3.45c3.189.7,1.339,2.145-2.247,2.02s-6.322-.227-8.864-.318-.9-1.725-.658-5.266Z" transform="translate(-48.786 -46.304)" opacity="0.2" style="isolation: isolate"/>
    <path id="Caminho_48626" data-name="Caminho 48626" d="M93.689,133.725c.023-.341,5.38.114,5.38.114a17.878,17.878,0,0,0,6.39,3.45c3.189.7,1.339,2.145-2.247,2.02s-6.322-.227-8.864-.318-.9-1.725-.658-5.266Z" transform="translate(-66.037 -46.304)" fill="#263237"/>
    <g id="Grupo_8802" data-name="Grupo 8802" transform="translate(0 17.584)">
      <path id="Caminho_48627" data-name="Caminho 48627" d="M108.637,91.26l3.814,1.986a4.711,4.711,0,0,1,2.157.057c1.033.318,3.008,2.077,2.906,2.849s-3.1.25-3.632.386-1.623-.545-1.918-.692S111.6,94.8,111.6,94.8l-2.962-1.01v-2.52Z" transform="translate(-94.264 -69.604)" fill="#fcb373"/>
      <path id="Caminho_48628" data-name="Caminho 48628" d="M117.16,72.18c-2.735.749-4.313,15.1-1.566,19.329S130,97.377,130,97.377l1.146-2.906s-8.978-3.723-9.931-5.539-1.407-5.437-.59-9.852-3.45-6.9-3.45-6.9Z" transform="translate(-114.16 -72.18)" fill="#007cff"/>
      <path id="Caminho_48629" data-name="Caminho 48629" d="M117.16,72.18c-2.735.749-4.313,15.1-1.566,19.329S130,97.377,130,97.377l1.146-2.906s-8.978-3.723-9.931-5.539-1.407-5.437-.59-9.852-3.45-6.9-3.45-6.9Z" transform="translate(-114.16 -72.18)" fill="#fff" opacity="0.6"/>
    </g>
    <g id="Grupo_8803" data-name="Grupo 8803" transform="translate(21.421 17.629)">
      <path id="Caminho_48630" data-name="Caminho 48630" d="M105.983,90.5l-.817,2.906a3.952,3.952,0,0,0-.953,1.5c-.193.681.091,1.373.465,1.487.942.3,2.883.726,3.03.227s.409-2.633-.409-2.542l.636-2.349L105.983,90.5Z" transform="translate(-101.012 -69.752)" fill="#fcb373"/>
      <path id="Caminho_48631" data-name="Caminho 48631" d="M102.609,72.231c3.144.84,9.568,11.169,8.569,16.878s-1.986,6.753-1.986,6.753L106.6,94.5s1.407-5.834.545-7.9C102.9,76.431,102.6,72.22,102.6,72.22Z" transform="translate(-102.598 -72.22)" fill="#007cff"/>
      <path id="Caminho_48632" data-name="Caminho 48632" d="M102.609,72.231c3.144.84,9.568,11.169,8.569,16.878s-1.986,6.753-1.986,6.753L106.6,94.5s1.407-5.834.545-7.9C102.9,76.431,102.6,72.22,102.6,72.22Z" transform="translate(-102.598 -72.22)" fill="#fff" opacity="0.6"/>
    </g>
  </g>
  <g id="Grupo_8811" data-name="Grupo 8811" transform="translate(0 12.6)">
    <path id="Caminho_48633" data-name="Caminho 48633" d="M136.836,77.88a.7.7,0,0,0,.692-.692V71.922a3.911,3.911,0,0,0-3.734-3.916l-4.438-.216a.687.687,0,1,0-.057,1.373l4.438.216a2.546,2.546,0,0,1,2.429,2.542v5.266a.7.7,0,0,0,.692.692Z" transform="translate(-123.239 -67.789)" fill="#1a2e35"/>
    <g id="Grupo_8805" data-name="Grupo 8805" transform="translate(12.394 5.733)">
      <path id="Caminho_48634" data-name="Caminho 48634" d="M108.585,74v28.364h21.52a3.449,3.449,0,0,1,3.45,3.45v15.323h-23.12a4.161,4.161,0,0,1-4.165-4.165V74.009a1.167,1.167,0,0,1,1.169-1.169h0a1.167,1.167,0,0,1,1.169,1.169Z" transform="translate(-106.27 -72.84)" fill="#263237"/>
      <path id="Caminho_48635" data-name="Caminho 48635" d="M108.585,74v28.364h21.52a3.449,3.449,0,0,1,3.45,3.45v15.323h-23.12a4.161,4.161,0,0,1-4.165-4.165V74.009a1.167,1.167,0,0,1,1.169-1.169h0a1.167,1.167,0,0,1,1.169,1.169Z" transform="translate(-106.27 -72.84)" fill="#fff" opacity="0.4"/>
      <path id="Caminho_48636" data-name="Caminho 48636" d="M97.449,107.87h17.82a3.8,3.8,0,0,1,3.791,3.791v29.6a1.7,1.7,0,0,0,1.691,1.691h8.774a.919.919,0,0,1,0,1.839h-8.774a3.534,3.534,0,0,1-3.53-3.53V130.286H97.449a.916.916,0,0,1-.919-.919V108.8a.916.916,0,0,1,.919-.919Zm.919,20.566h18.864V111.65a1.952,1.952,0,0,0-1.952-1.952H98.369Z" transform="translate(-92.104 -68.111)" fill="#263237"/>
      <path id="Caminho_48637" data-name="Caminho 48637" d="M97.449,107.87h17.82a3.8,3.8,0,0,1,3.791,3.791v29.6a1.7,1.7,0,0,0,1.691,1.691h8.774a.919.919,0,0,1,0,1.839h-8.774a3.534,3.534,0,0,1-3.53-3.53V130.286H97.449a.916.916,0,0,1-.919-.919V108.8a.916.916,0,0,1,.919-.919Zm.919,20.566h18.864V111.65a1.952,1.952,0,0,0-1.952-1.952H98.369Z" transform="translate(-92.104 -68.111)" fill="#fff" opacity="0.6"/>
      <rect id="Retângulo_7409" data-name="Retângulo 7409" width="16.787" height="2.917" rx="1.28" transform="translate(28.25 73.299)" fill="#263237"/>
      <rect id="Retângulo_7410" data-name="Retângulo 7410" width="16.787" height="2.917" rx="1.28" transform="translate(28.25 73.299)" fill="#fff" opacity="0.4"/>
    </g>
    <g id="Grupo_8810" data-name="Grupo 8810" transform="translate(0 45.22)">
      <path id="Caminho_48638" data-name="Caminho 48638" d="M127.684,151.169c9.8,0,17.774-9.772,17.774-21.77s-7.968-21.77-17.774-21.77S109.91,117.4,109.91,129.4s7.968,21.77,17.774,21.77Zm0-41.258c8.535,0,15.482,8.74,15.482,19.477s-6.946,19.477-15.482,19.477-15.482-8.74-15.482-19.477,6.946-19.477,15.482-19.477Z" transform="translate(-109.91 -107.63)" fill="#263237"/>
      <path id="Caminho_48639" data-name="Caminho 48639" d="M127.438,148.86c8.66,0,15.709-8.842,15.709-19.715S136.1,109.43,127.439,109.43s-15.709,8.842-15.709,19.715,7.048,19.715,15.709,19.715Zm0-36.672c7.139,0,12.962,7.6,12.962,16.957S134.589,146.1,127.438,146.1s-12.962-7.6-12.962-16.957S120.288,112.188,127.438,112.188Z" transform="translate(-109.664 -107.387)" fill="#007cff"/>
      <ellipse id="Elipse_702" data-name="Elipse 702" cx="4.165" cy="5.391" rx="4.165" ry="5.391" transform="translate(13.609 16.378)" fill="#007cff"/>
      <g id="Grupo_8809" data-name="Grupo 8809" transform="translate(3.45 3.428)">
        <rect id="Retângulo_7411" data-name="Retângulo 7411" width="0.919" height="36.672" transform="translate(13.858)" fill="#007cff"/>
        <rect id="Retângulo_7412" data-name="Retângulo 7412" width="28.659" height="0.919" transform="translate(0 17.876)" fill="#007cff"/>
        <g id="Grupo_8806" data-name="Grupo 8806" transform="translate(3.816 5.082)">
          <rect id="Retângulo_7413" data-name="Retângulo 7413" width="0.919" height="32.915" transform="translate(0.724 26.503) rotate(-141.99)" fill="#007cff"/>
          <rect id="Retângulo_7414" data-name="Retângulo 7414" width="32.915" height="0.919" transform="matrix(-0.616, -0.788, 0.788, -0.616, 20.282, 26.497)" fill="#007cff"/>
        </g>
        <g id="Grupo_8808" data-name="Grupo 8808" transform="translate(0.83 1.219)">
          <rect id="Retângulo_7415" data-name="Retângulo 7415" width="35.571" height="0.919" transform="translate(18.635 34.16) rotate(-108.27)" fill="#007cff"/>
          <rect id="Retângulo_7416" data-name="Retângulo 7416" width="0.919" height="30.01" transform="matrix(-0.476, -0.88, 0.88, -0.476, 0.52, 24.651)" fill="#007cff"/>
          <g id="Grupo_8807" data-name="Grupo 8807" transform="translate(0 0)">
            <rect id="Retângulo_7417" data-name="Retângulo 7417" width="0.919" height="35.651" transform="translate(8.553 34.262) rotate(-162.41)" fill="#007cff"/>
            <rect id="Retângulo_7418" data-name="Retângulo 7418" width="29.93" height="0.919" transform="translate(26.563 24.428) rotate(-152.56)" fill="#007cff"/>
          </g>
        </g>
      </g>
    </g>
  </g>
</svg>
