<svg xmlns="http://www.w3.org/2000/svg" xmlns:xlink="http://www.w3.org/1999/xlink" width="176.12" height="240.455" viewBox="0 0 176.12 240.455">
  <defs>
    <clipPath id="clip-path">
      <path id="Caminho_50135" data-name="Caminho 50135" d="M118.936,163.356a8.613,8.613,0,0,1-1.288-.022c-9.019-.81-11.7-13.262-12.264-16.523,5.206-1.763,12.332-1.415,18.949.607C124.548,151.467,124.614,162.572,118.936,163.356Z" transform="translate(-105.384 -145.674)" fill="none"/>
    </clipPath>
  </defs>
  <g id="img.3-slide-18" transform="translate(41.878 22.574)">
    <g id="Grupo_9919" data-name="Grupo 9919" transform="translate(47.854 92.858)">
      <path id="Caminho_50087" data-name="Caminho 50087" d="M184.117,163.277s-7,13.469-15.164,19.564c-2.841,2.119-5.821,3.347-8.7,2.807a5.684,5.684,0,0,1-1.739-.629,8.163,8.163,0,0,1-2.924-3c-2.132-3.512-3.12-9.026-3.529-14.46-.018-.256-.036-.513-.053-.769q-.044-.666-.076-1.326c-.029-.557-.052-1.11-.069-1.657-.032-.981-.048-1.943-.054-2.871-.026-4.737.254-8.62.356-9.877l.213.084q.792.323,1.524.7a13.945,13.945,0,0,1,2.108,1.327,22.324,22.324,0,0,1,2.017,2.058q.579.672,1.171,1.468a29.293,29.293,0,0,1,2.205,3.475q.4.74.791,1.551.305.634.6,1.316c.492,1.142.96,2.385,1.394,3.737.084.256.165.518.244.783l12.827-8.158Z" transform="translate(-106.184 -125.514)" fill="#e87641"/>
      <path id="Caminho_50088" data-name="Caminho 50088" d="M78.184,163.117c-.013.158-.03.32-.043.477-.034.417-.076.834-.132,1.248-.059.485-.128.971-.213,1.448a35.407,35.407,0,0,1-.869,3.837A40.979,40.979,0,0,1,74.9,175.68v.009a51.509,51.509,0,0,1-10.459,15.076l-5.383-3.646c2.116-2.823,3.837-8.807,5.187-15.583a.045.045,0,0,0,0-.021c.375-1.346.873-3.02,1.473-4.83.384-1.163.814-2.381,1.282-3.607.153-.4.311-.8.477-1.2q.326-.811.677-1.61c1.8-4.1,4.029-7.849,6.567-9.31a22.983,22.983,0,0,1,2.065-1.048c.336-.149.673-.285,1-.413C78.376,151.116,78.874,154.783,78.184,163.117Z" transform="translate(-54.138 -124.641)" fill="#e87641"/>
      <path id="Caminho_50089" data-name="Caminho 50089" d="M167.153,162.028a7.779,7.779,0,0,1-1.019-1.247c-.05-.075-.1-.148-.153-.221Q166.561,161.232,167.153,162.028Z" transform="translate(-114.136 -130.845)" fill="#e87641"/>
      <g id="Grupo_9911" data-name="Grupo 9911" transform="translate(11.58 35.631)">
        <path id="Caminho_50090" data-name="Caminho 50090" d="M86.453,183.664l-.865,3.837s-.047-.008-.14-.017c-.213-.025-.664-.081-1.29-.187a32.4,32.4,0,0,1-9.919-3.254c.384-1.163.814-2.381,1.282-3.607a37.711,37.711,0,0,0,9.05,2.934c.567.107,1.15.2,1.746.277C86.364,183.655,86.411,183.66,86.453,183.664Z" transform="translate(-74.239 -177.629)" fill="#ffc800"/>
        <path id="Caminho_50091" data-name="Caminho 50091" d="M89.051,176.9l-.187,1.72s-.026,0-.086-.008c-.226-.025-.881-.107-1.827-.277a35.811,35.811,0,0,1-8.7-2.683q.326-.811.677-1.61a37.45,37.45,0,0,0,8.168,2.547c.6.115,1.227.217,1.861.3A.4.4,0,0,0,89.051,176.9Z" transform="translate(-76.488 -174.041)" fill="#3d889e"/>
      </g>
      <g id="Grupo_9912" data-name="Grupo 9912" transform="translate(43.918 34.658)">
        <path id="Caminho_50092" data-name="Caminho 50092" d="M164.272,182.091c-2.751,1.452-7.178,3.356-11.471,3.358l-.657-2.576-.19-.748.137-.02a36.661,36.661,0,0,0,10.787-3.75C163.37,179.5,163.838,180.739,164.272,182.091Z" transform="translate(-150.183 -175.487)" fill="#ffc800"/>
        <path id="Caminho_50093" data-name="Caminho 50093" d="M160.014,173.373a31.985,31.985,0,0,1-10.263,3.74c-.539.08-1.08.137-1.62.166l-.213-1.48s.657-.089,1.764-.343a37.713,37.713,0,0,0,9.541-3.634Q159.626,172.562,160.014,173.373Z" transform="translate(-147.918 -171.822)" fill="#3d889e"/>
      </g>
      <path id="Caminho_50094" data-name="Caminho 50094" d="M208.6,92.858l-2.068,6,3.1,4.963,2.206-5.032Z" transform="translate(-136.889 -92.858)" fill="#fff"/>
      <path id="Linha_52" data-name="Linha 52" d="M1.368,18.741A1.5,1.5,0,0,1-.126,17.36L-1.5.119A1.5,1.5,0,0,1-.119-1.5,1.5,1.5,0,0,1,1.5-.119L2.865,17.123a1.5,1.5,0,0,1-1.377,1.614C1.448,18.74,1.408,18.741,1.368,18.741Z" transform="translate(72.746 9.232)" fill="#6b3c1e"/>
      <g id="Grupo_9913" data-name="Grupo 9913" transform="translate(65.682 26.523)">
        <path id="Caminho_50095" data-name="Caminho 50095" d="M204.627,169.787s10.326-9.314,7.456-11.318c0,0,.8-1.559-.806-1.913,0,0,.848-1.656-.88-1.822,0,0,.763-1.2-.471-1.418a2.445,2.445,0,0,0-2.116.875s.485-.572-1.406-.818-6.9,2.184-4.392,8.019l-4.508,2.783S201.182,169.623,204.627,169.787Z" transform="translate(-197.505 -153.288)" fill="#e87641"/>
        <path id="Caminho_50096" data-name="Caminho 50096" d="M219.656,162.1c-.523,0-.842-.12-.983-.364a.508.508,0,0,1-.036-.43,2.026,2.026,0,0,1,.833-.82,2.264,2.264,0,0,1-1.261-.128.642.642,0,0,1-.321-.425.831.831,0,0,1,.264-.769,1.492,1.492,0,0,1-1.031-.1.5.5,0,0,1-.233-.385c-.022-.28.151-.569.537-.884-.334.019-.539-.061-.643-.24-.2-.346,0-.826.612-1.468a9.057,9.057,0,0,1,.847-.773.25.25,0,0,1,.309.393,8.7,8.7,0,0,0-.8.728c-.487.512-.559.772-.544.852.066.02.378.065,1.464-.318.227-.08.447-.165.638-.241.365-.163.629-.266.648-.273l.193.461c-.017.008-.277.125-.642.271-.246.11-.539.248-.828.4-1.287.682-1.3,1.015-1.3,1.051h0c.024.02.27.185,1.582-.139.246-.061.487-.129.7-.193.43-.16.776-.251.8-.257l.148.477c-.02.007-.354.126-.811.262-.78.3-1.5.712-1.425,1.04a.143.143,0,0,0,.082.1c.455.262,1.978-.077,2.832-.353l.171.47c-.006,0-.634.259-1.248.59-1.091.589-1.108.855-1.108.857s.161.247,1.517.011a14.973,14.973,0,0,0,1.469-.343.25.25,0,1,1,.142.479,15.222,15.222,0,0,1-1.525.356A6.3,6.3,0,0,1,219.656,162.1Z" transform="translate(-208.42 -154.53)"/>
        <path id="Caminho_50097" data-name="Caminho 50097" d="M214.4,164.37a.25.25,0,0,1-.165-.438,3.719,3.719,0,0,0,.862-3.195.25.25,0,1,1,.49-.1,4.167,4.167,0,0,1-1.022,3.668A.249.249,0,0,1,214.4,164.37Z" transform="translate(-206.986 -157.441)"/>
      </g>
      <g id="Grupo_9915" data-name="Grupo 9915" transform="translate(0 56.639)">
        <g id="Grupo_9914" data-name="Grupo 9914">
          <path id="Caminho_50098" data-name="Caminho 50098" d="M58.155,231.392a3.183,3.183,0,0,1-.575,3.256c-1.341,1.533-2.235,2.873-3.32,3.9a1.01,1.01,0,0,1-1.724-.192,1.56,1.56,0,0,0-.447,1.341c.128.83,1.607,3.92.383,4.023-.744.062-1.533-1.788-1.533-1.788s.618,2.964-.511,2.363c-.549-.293-1.021-2.107-1.021-2.107s0,1.277-.511.958c0,0-1.669-3.766-.782-6.928s8.792-14.306,8.792-14.306l6.131,3.2Z" transform="translate(-47.854 -221.906)" fill="#e87641"/>
        </g>
        <path id="Caminho_50099" data-name="Caminho 50099" d="M58.441,252.525a.25.25,0,0,1-.233-.16c-.29-.747.26-1.822.842-2.959.144-.281.279-.546.4-.8a2.685,2.685,0,0,0,.32-1.8.25.25,0,1,1,.473-.163,3.066,3.066,0,0,1-.341,2.176c-.125.266-.269.548-.409.82-.483.943-1.03,2.012-.821,2.55a.25.25,0,0,1-.233.341Z" transform="translate(-53.759 -235.83)"/>
        <path id="Caminho_50100" data-name="Caminho 50100" d="M53.708,262.83a.258.258,0,0,1-.142-.043.25.25,0,0,1-.112-.22c-.021-.066-.066-.193-.111-.318a11.3,11.3,0,0,1-.811-3.544.25.25,0,1,1,.5.012,10.915,10.915,0,0,0,.782,3.364c.046.128.082.229.106.3a.323.323,0,0,1-.056.392A.252.252,0,0,1,53.708,262.83Z" transform="translate(-50.619 -242.558)"/>
        <path id="Caminho_50101" data-name="Caminho 50101" d="M50.412,262.777a.25.25,0,0,1-.239-.176c-.042-.134-1.011-3.3-.439-4.976a.25.25,0,0,1,.473.161c-.52,1.525.434,4.635.444,4.667a.25.25,0,0,1-.239.324Z" transform="translate(-48.948 -241.993)"/>
      </g>
      <path id="Caminho_50102" data-name="Caminho 50102" d="M161.208,332.516H144.173c-.707-1.976-1.329-3.926-1.87-5.826-.451-1.567-.847-3.1-1.2-4.6a91.428,91.428,0,0,1-2.564-23.5h14.518s.289,13.794,2,22.937a35.078,35.078,0,0,0,1.065,4.361c.553,1.691,1.205,2.9,1.972,3.364C162.541,331.919,161.208,332.516,161.208,332.516Z" transform="translate(-98.717 -208.294)" fill="#e87641"/>
      <path id="Caminho_50103" data-name="Caminho 50103" d="M90.37,321.792c-.332,1.444-.711,2.93-1.137,4.446-.571,2.044-1.235,4.144-2,6.278H70.2s-1.333-.6,3.109-3.262c.9-.536,1.635-2.1,2.248-4.267a46.56,46.56,0,0,0,1.022-4.774,186.39,186.39,0,0,0,1.767-21.621H92.865A91.216,91.216,0,0,1,90.37,321.792Z" transform="translate(-60.287 -208.294)" fill="#e87641"/>
      <path id="Caminho_50104" data-name="Caminho 50104" d="M117.36,262.6l-2.384-4.452-2.9,5.165-4.455-4.674-3.591,5.461c-.068,0-.136.008-.2.011l-4.3-5.145-5.128,5.276h0l-3.532-5.6-5.884,4.79-3.1-5.689-5.848,3.829L73.8,255.858s-6.007,2.917-6.178,2.928h0v0a245.939,245.939,0,0,0,11.56-41.669,75.136,75.136,0,0,0,33.916.891l.024-.005c.372,1.573.736,3.189,1.084,4.838C116.83,235.256,118.672,249.606,117.36,262.6Z" transform="translate(-58.941 -162.578)" fill="#c9110e"/>
      <path id="Caminho_50105" data-name="Caminho 50105" d="M127.888,178.1c-1.606.4-3.2.715-4.761.966A67.809,67.809,0,0,1,93.946,177.1c.1-.6.192-1.2.277-1.8.085-.562.17-1.124.251-1.691V173.6q.409-2.849.741-5.741c.153-1.3.29-2.615.413-3.926.047-.481.09-.967.132-1.448.051-.583.1-1.163.14-1.746.3-3.9.473-7.789.473-11.618,0-.43,0-.856-.008-1.286.336-.149.673-.285,1-.413.541-.213,1.065-.392,1.576-.549a22.474,22.474,0,0,1,6.452-1.069.014.014,0,0,0,0-.009,1.053,1.053,0,0,1,.115,0h.115c.277.008.558.013.843.025s.575.017.869.034.575.025.865.047c.217.008.435.025.652.043.17.008.345.021.519.038.349.025.694.055,1.048.094.26.021.52.051.784.081l.115.013c.375.043.749.09,1.12.145.388.051.775.111,1.163.175.255.043.506.085.758.136l.208.039c.255.047.5.1.754.153a.192.192,0,0,1,.047.008c.281.06.558.124.835.187l.055.013c.273.068.55.141.818.213q.428.115.844.243v0c.613.187,1.214.383,1.789.614.068.029.14.059.213.085.213.647.622,1.891,1.167,3.632,1.55,4.983,4.195,14.058,6.55,25.075Q127.76,177.491,127.888,178.1Z" transform="translate(-73.716 -122.561)" fill="#e87641"/>
      <path id="Linha_53" data-name="Linha 53" d="M10.344,93.184a1.5,1.5,0,0,1-1.489-1.332L-1.491.168A1.5,1.5,0,0,1-.168-1.491,1.5,1.5,0,0,1,1.491-.168L11.836,91.516a1.5,1.5,0,0,1-1.322,1.659A1.518,1.518,0,0,1,10.344,93.184Z" transform="translate(74.542 31.839)" fill="#6b3c1e"/>
      <path id="Caminho_50106" data-name="Caminho 50106" d="M118.9,163.422a8.707,8.707,0,0,1-1.286-.022c-8.326-.745-11.418-12.205-12.291-16.528a22.474,22.474,0,0,1,6.452-1.069.014.014,0,0,0,0-.009,1.052,1.052,0,0,1,.115,0h.115c.277.008.558.013.843.025s.575.017.869.034.575.025.865.047c.217.008.435.025.652.043.17.008.345.021.519.038.349.025.694.055,1.048.094.26.021.52.051.784.081l.115.013c.375.043.749.09,1.12.145.388.051.775.111,1.163.175.255.043.506.085.758.136l.208.039c.255.047.5.1.754.153a.192.192,0,0,1,.047.008c.281.06.558.124.835.187l.055.013c.273.068.549.141.818.213q.428.115.844.243v0C124.518,151.54,124.582,162.638,118.9,163.422Z" transform="translate(-80.103 -122.561)" fill="#ffc800"/>
      <path id="Caminho_50107" data-name="Caminho 50107" d="M125.662,117.912s1.208-2.423.079-3.252c-.94-.689-2.077.3-2.077.3s-.387-.835-1.1-.684c-.659.14-.7,1.026-.7,1.026s-2.28-1.425-1.681.712c0,0-1.453-.684-.912.627,0,0-2.28-.313-1.254,1.425,0,0-1.909-.029-.655,1.282,0,0-1.368.6-.142,1.538,0,0-1.083.542,0,1.14a7.886,7.886,0,0,0,1.823.769S122.9,117.611,125.662,117.912Z" transform="translate(-86.491 -104.868)"/>
      <path id="Caminho_50108" data-name="Caminho 50108" d="M122.957,125.552s.5-4.295,3.592-5.038,3.386,1.528,2.932,2.436S124.98,126.914,122.957,125.552Z" transform="translate(-89.994 -108.293)"/>
      <g id="Grupo_9916" data-name="Grupo 9916" transform="translate(31.678 13.116)">
        <path id="Caminho_50109" data-name="Caminho 50109" d="M121.943,129.1l-.417,3.707-1.5.062s4.119,4.307,6.8.5l-1-.125.187-2.89s1.731.452,1.965-2.246.369-5.578-2.128-5.355-3.582,3.831-3.582,3.831-2.292-.572-1.955,1.179S121.943,129.1,121.943,129.1Z" transform="translate(-120.029 -122.741)" fill="#e87641"/>
        <path id="Caminho_50110" data-name="Caminho 50110" d="M132.545,132.03a.25.25,0,0,1-.007-.5l.586-.018v-1.547a.25.25,0,0,1,.5,0V132l-1.071.033Z" transform="translate(-127.052 -126.795)"/>
        <path id="Caminho_50111" data-name="Caminho 50111" d="M131.058,129.61c0,.124-.075.225-.166.225s-.166-.1-.166-.225.074-.224.166-.224S131.058,129.487,131.058,129.61Z" transform="translate(-126.031 -126.47)"/>
        <path id="Caminho_50112" data-name="Caminho 50112" d="M136.9,129.61c0,.124-.074.225-.166.225s-.166-.1-.166-.225.074-.224.166-.224S136.9,129.487,136.9,129.61Z" transform="translate(-129.308 -126.47)"/>
        <path id="Caminho_50113" data-name="Caminho 50113" d="M131.91,135.97h-.017a.851.851,0,0,1-.84-.762.25.25,0,0,1,.5-.042.353.353,0,0,0,.375.3.25.25,0,0,1-.016.5Z" transform="translate(-126.354 -129.725)"/>
        <path id="Caminho_50114" data-name="Caminho 50114" d="M131.374,139.748a10.958,10.958,0,0,1-1.8-.266,2.713,2.713,0,0,0,1.721,1.551Z" transform="translate(-125.383 -132.134)"/>
        <path id="Caminho_50115" data-name="Caminho 50115" transform="translate(-121.409 -128.548)"/>
      </g>
      <path id="Caminho_50116" data-name="Caminho 50116" d="M124.723,124.5s.052.6.469.391.521-1.068.521-1.068a.4.4,0,0,0,.625-.208,2.029,2.029,0,0,0,0-1.172s.7.313,1.094-.156a.694.694,0,0,0,.1-.859s.781.755,1.354.469.6-.573.6-.573-.191,1.314.959,1.191,1.645-1.269,1.229-1.425a.87.87,0,0,0-.755.078s.964-1.875-.521-1.537S124.176,120.881,124.723,124.5Z" transform="translate(-90.961 -107.857)"/>
      <path id="Caminho_50117" data-name="Caminho 50117" d="M92.773,189.648c.058-.108,1.723-9.179,1.114-15.268,0,0,3.468,2.981,2.946,9.418s-5.916,16.354-5.916,16.354Z" transform="translate(-72.017 -138.6)"/>
      <path id="Caminho_50118" data-name="Caminho 50118" d="M174.236,197.6c-2.452,1.83-5.01,2.995-7.514,2.932-.348-1.649-.711-3.265-1.084-4.838l-.024.005-4.389-18.34s2.776,6.087,4.651,11.307C168.384,195.647,169.451,198.583,174.236,197.6Z" transform="translate(-111.466 -140.27)"/>
      <path id="Caminho_50119" data-name="Caminho 50119" d="M81.7,272.691a.25.25,0,0,1-.234-.337A156.649,156.649,0,0,0,88.2,246.63a.25.25,0,0,1,.494.079,157.193,157.193,0,0,1-6.762,25.819A.25.25,0,0,1,81.7,272.691Z" transform="translate(-66.844 -179.161)" fill="#a30e0b"/>
      <path id="Caminho_50120" data-name="Caminho 50120" d="M100.129,266.115a.25.25,0,0,1-.243-.31c.047-.189,4.717-19.081,5.689-34.22a.25.25,0,0,1,.5.032c-.975,15.184-5.655,34.119-5.7,34.309A.25.25,0,0,1,100.129,266.115Z" transform="translate(-77.186 -170.706)" fill="#a30e0b"/>
      <path id="Caminho_50121" data-name="Caminho 50121" d="M120.607,280.506l-.036,0a.25.25,0,0,1-.211-.283c.025-.17,2.468-17.074,2.053-24.56a.25.25,0,1,1,.5-.028c.418,7.536-2.032,24.489-2.057,24.659A.25.25,0,0,1,120.607,280.506Z" transform="translate(-88.676 -184.198)" fill="#a30e0b"/>
      <path id="Caminho_50122" data-name="Caminho 50122" d="M140.341,274.716h-.012a.25.25,0,0,1-.238-.261c.011-.245,1.125-24.555.571-29.683a.25.25,0,0,1,.5-.054c.558,5.166-.557,29.514-.568,29.759A.25.25,0,0,1,140.341,274.716Z" transform="translate(-99.748 -178.081)" fill="#a30e0b"/>
      <path id="Caminho_50123" data-name="Caminho 50123" d="M157.612,282.124a.25.25,0,0,1-.25-.238c-.009-.191-.907-19.177-.907-23.355a.25.25,0,0,1,.5,0c0,4.167.9,23.14.906,23.332a.25.25,0,0,1-.238.262Z" transform="translate(-108.931 -185.817)" fill="#a30e0b"/>
      <path id="Caminho_50124" data-name="Caminho 50124" d="M170.722,269.222a.25.25,0,0,1-.25-.24c-.009-.245-.974-24.6-3.744-32.488a.25.25,0,0,1,.472-.166c1.174,3.346,2.166,9.857,2.947,19.351.581,7.062.822,13.223.824,13.284a.25.25,0,0,1-.24.259Z" transform="translate(-114.687 -173.405)" fill="#a30e0b"/>
      <path id="Caminho_50125" data-name="Caminho 50125" d="M178.745,195.608a.25.25,0,0,1-.238-.173,9.013,9.013,0,0,1,.48-6.633c.034-.076.072-.162.083-.194a.25.25,0,0,1,.5.063,1.142,1.142,0,0,1-.122.334,8.536,8.536,0,0,0-.461,6.274.25.25,0,0,1-.238.328Z" transform="translate(-121.064 -146.608)"/>
      <path id="Caminho_50126" data-name="Caminho 50126" d="M135.142,190.773c0,.8-.36,1.44-.8,1.44s-.8-.645-.8-1.44.36-1.44.8-1.44S135.142,189.978,135.142,190.773Z" transform="translate(-95.928 -146.99)" fill="#3d889e"/>
      <path id="Caminho_50127" data-name="Caminho 50127" d="M121.333,185.947c-.2.6-.643.994-1,.878s-.486-.7-.29-1.3.643-.993,1-.877S121.528,185.347,121.333,185.947Z" transform="translate(-88.308 -144.351)" fill="#3d889e"/>
      <path id="Caminho_50128" data-name="Caminho 50128" d="M146.9,184.057c.264.574.2,1.166-.138,1.322s-.83-.182-1.094-.756-.2-1.166.139-1.322S146.633,183.483,146.9,184.057Z" transform="translate(-102.644 -143.584)" fill="#3d889e"/>
      <path id="Caminho_50129" data-name="Caminho 50129" d="M150.462,172.061c.391.391.52.9.288,1.128s-.736.1-1.128-.288-.52-.9-.288-1.128S150.071,171.67,150.462,172.061Z" transform="translate(-104.73 -137.072)" fill="#3d889e"/>
      <path id="Caminho_50130" data-name="Caminho 50130" d="M152.119,159.233c.373.215.571.568.444.789s-.533.226-.905.011-.571-.568-.444-.789S151.746,159.018,152.119,159.233Z" transform="translate(-105.827 -130.012)" fill="#3d889e"/>
      <path id="Caminho_50131" data-name="Caminho 50131" d="M108.5,175.04c-.391.391-.52.9-.288,1.128s.736.1,1.128-.289.52-.9.288-1.128S108.889,174.65,108.5,175.04Z" transform="translate(-81.655 -138.744)" fill="#3d889e"/>
      <path id="Caminho_50132" data-name="Caminho 50132" d="M103.634,162.3c-.373.215-.571.569-.444.79s.533.225.905.01.571-.568.444-.789S104.007,162.087,103.634,162.3Z" transform="translate(-78.882 -131.734)" fill="#3d889e"/>
      <path id="Caminho_50133" data-name="Caminho 50133" d="M101.12,151.608c-.394.172-.632.5-.529.735s.5.284.9.111.631-.5.529-.734S101.515,151.436,101.12,151.608Z" transform="translate(-77.431 -125.765)" fill="#3d889e"/>
      <g id="Grupo_9918" data-name="Grupo 9918" transform="translate(25.25 23.181)">
        <g id="Grupo_9917" data-name="Grupo 9917" clip-path="url(#clip-path)">
          <path id="Caminho_50134" data-name="Caminho 50134" d="M120.267,151.46a5.809,5.809,0,0,1-4.3-2.278,20.245,20.245,0,0,1-3.279-5.606,50.147,50.147,0,0,1-2.563-8.342.25.25,0,0,1,.49-.1,49.6,49.6,0,0,0,2.537,8.253,19.746,19.746,0,0,0,3.191,5.463c1.382,1.552,2.853,2.253,4.37,2.083a3.044,3.044,0,0,0,2.065-1.238c1.941-2.451,2.341-8,2.334-12.225a84.028,84.028,0,0,0-.494-8.711.25.25,0,0,1,.5-.06,84.6,84.6,0,0,1,.5,8.77c.01,6.26-.812,10.478-2.442,12.536a3.525,3.525,0,0,1-2.4,1.424A4.534,4.534,0,0,1,120.267,151.46Z" transform="translate(-108.183 -136.167)"/>
        </g>
      </g>
    </g>
    <path id="Caminho_50136" data-name="Caminho 50136" d="M83.646,347.853a116.394,116.394,0,0,0,13.789,1.58c-.332,1.444-.711,2.93-1.137,4.446-5.971-.383-10.919-.92-13.675-1.252A46.674,46.674,0,0,0,83.646,347.853Z" transform="translate(-19.509 -143.078)" fill="#3d889e"/>
    <path id="Caminho_50137" data-name="Caminho 50137" d="M159.434,355.213a121.914,121.914,0,0,1-13.824.8c-.452-1.567-.848-3.1-1.2-4.6,6.3-.047,11.439-.37,13.956-.562A35.077,35.077,0,0,0,159.434,355.213Z" transform="translate(-54.179 -144.76)" fill="#3d889e"/>
  </g>
</svg>
